<svg version="1.1" viewBox="0.0 0.0 960.0 540.0" fill="none" stroke="none" stroke-linecap="square" stroke-miterlimit="10" xmlns:xlink="http://www.w3.org/1999/xlink" xmlns="http://www.w3.org/2000/svg"><clipPath id="g13eb762cda7_0_305.0"><path d="m0 0l960.0 0l0 540.0l-960.0 0l0 -540.0z" clip-rule="nonzero"/></clipPath><g clip-path="url(#g13eb762cda7_0_305.0)"><path fill="#000000" fill-opacity="0.0" d="m0 0l960.0 0l0 540.0l-960.0 0z" fill-rule="evenodd"/><path fill="#000000" fill-opacity="0.0" d="m21.54368 22.167978l458.4567 0l0 49.826775l-458.4567 0z" fill-rule="evenodd"/><path fill="#000000" d="m120.691734 51.266727q0.3125 0 0.53125 0.25l1.484375 1.609375q-1.21875 1.515625 -3.03125 2.328125q-1.796875 0.8125 -4.3125 0.8125q-2.25 0 -4.046875 -0.765625q-1.796875 -0.765625 -3.078125 -2.140625q-1.28125 -1.375 -1.953125 -3.28125q-0.671875 -1.90625 -0.671875 -4.15625q0 -2.28125 0.75 -4.171875q0.75 -1.90625 2.125 -3.265625q1.375 -1.375 3.28125 -2.140625q1.921875 -0.765625 4.21875 -0.765625q2.265625 0 3.953125 0.71875q1.6875 0.71875 2.890625 1.921875l-1.265625 1.75q-0.109375 0.15625 -0.296875 0.28125q-0.171875 0.125 -0.46875 0.125q-0.328125 0 -0.671875 -0.25q-0.328125 -0.25 -0.84375 -0.546875q-0.515625 -0.296875 -1.3125 -0.546875q-0.78125 -0.25 -2.0 -0.25q-1.4375 0 -2.640625 0.5q-1.1875 0.5 -2.046875 1.421875q-0.859375 0.921875 -1.34375 2.25q-0.484375 1.3125 -0.484375 2.96875q0 1.71875 0.484375 3.046875q0.484375 1.328125 1.3125 2.234375q0.828125 0.90625 1.9375 1.390625q1.125 0.484375 2.40625 0.484375q0.78125 0 1.390625 -0.078125q0.625 -0.09375 1.15625 -0.265625q0.53125 -0.1875 1.0 -0.46875q0.46875 -0.296875 0.921875 -0.71875q0.140625 -0.125 0.296875 -0.203125q0.15625 -0.078125 0.328125 -0.078125zm8.352058 -9.578125l0 14.359375l-3.4531326 0l0 -14.359375l3.4531326 0zm0.515625 -4.1875q0 0.4375 -0.1875 0.84375q-0.171875 0.390625 -0.484375 0.6875q-0.296875 0.28125 -0.703125 0.46875q-0.40625763 0.171875 -0.8593826 0.171875q-0.453125 0 -0.859375 -0.171875q-0.390625 -0.1875 -0.6875 -0.46875q-0.296875 -0.296875 -0.46875 -0.6875q-0.171875 -0.40625 -0.171875 -0.84375q0 -0.46875 0.171875 -0.875q0.171875 -0.40625 0.46875 -0.6875q0.296875 -0.296875 0.6875 -0.46875q0.40625 -0.1875 0.859375 -0.1875q0.453125 0 0.8593826 0.1875q0.40625 0.171875 0.703125 0.46875q0.3125 0.28125 0.484375 0.6875q0.1875 0.40625 0.1875 0.875zm3.384842 18.546875l0 -14.359375l2.03125 0q0.53125 0 0.734375 0.203125q0.21875 0.1875 0.296875 0.65625l0.203125 1.734375q0.765625 -1.328125 1.796875 -2.09375q1.046875 -0.765625 2.328125 -0.765625q1.0625 0 1.765625 0.484375l-0.4375 2.59375q-0.046875 0.25 -0.1875 0.359375q-0.140625 0.09375 -0.375 0.09375q-0.21875 0 -0.578125 -0.09375q-0.359375 -0.09375 -0.96875 -0.09375q-1.078125 0 -1.84375 0.59375q-0.765625 0.59375 -1.296875 1.734375l0 8.953125l-3.46875 0zm21.531708 -11.328125q-0.15625 0.203125 -0.296875 0.3125q-0.140625 0.109375 -0.421875 0.109375q-0.265625 0 -0.53125 -0.15625q-0.25 -0.171875 -0.59375 -0.375q-0.34375 -0.203125 -0.828125 -0.359375q-0.484375 -0.15625 -1.203125 -0.15625q-0.90625 0 -1.59375 0.328125q-0.6875 0.328125 -1.140625 0.953125q-0.453125 0.609375 -0.6875 1.484375q-0.21875 0.875 -0.21875 1.984375q0 1.140625 0.234375 2.046875q0.25 0.890625 0.71875 1.5q0.46875 0.609375 1.125 0.921875q0.65625 0.3125 1.484375 0.3125q0.828125 0 1.328125 -0.203125q0.515625 -0.203125 0.859375 -0.4375q0.359375 -0.25 0.609375 -0.453125q0.265625 -0.203125 0.59375 -0.203125q0.40625 0 0.625 0.3125l0.984375 1.265625q-0.5625 0.671875 -1.234375 1.125q-0.671875 0.453125 -1.40625 0.734375q-0.71875 0.265625 -1.484375 0.375q-0.765625 0.109375 -1.515625 0.109375q-1.34375 0 -2.515625 -0.484375q-1.171875 -0.5 -2.046875 -1.453125q-0.875 -0.953125 -1.390625 -2.328125q-0.515625 -1.390625 -0.515625 -3.140625q0 -1.59375 0.453125 -2.9375q0.46875 -1.359375 1.34375 -2.34375q0.890625 -0.984375 2.1875 -1.546875q1.296875 -0.5625 3.0 -0.5625q1.609375 0 2.8125 0.53125q1.21875 0.515625 2.1875 1.46875l-0.921875 1.265625zm6.434067 -3.03125l0 9.125q0 1.3125 0.609375 2.03125q0.609375 0.71875 1.828125 0.71875q0.890625 0 1.671875 -0.390625q0.78125 -0.40625 1.484375 -1.09375l0 -10.390625l3.453125 0l0 14.359375l-2.109375 0q-0.671875 0 -0.875 -0.625l-0.234375 -1.15625q-0.453125 0.453125 -0.9375 0.828125q-0.46875 0.359375 -1.015625 0.625q-0.53125 0.265625 -1.15625 0.40625q-0.625 0.140625 -1.34375 0.140625q-1.171875 0 -2.078125 -0.390625q-0.890625 -0.40625 -1.515625 -1.125q-0.609375 -0.734375 -0.9375 -1.734375q-0.3125 -1.0 -0.3125 -2.203125l0 -9.125l3.46875 0zm16.433563 0l0 14.359375l-3.453125 0l0 -14.359375l3.453125 0zm0.515625 -4.1875q0 0.4375 -0.1875 0.84375q-0.171875 0.390625 -0.484375 0.6875q-0.296875 0.28125 -0.703125 0.46875q-0.40625 0.171875 -0.859375 0.171875q-0.453125 0 -0.859375 -0.171875q-0.390625 -0.1875 -0.6875 -0.46875q-0.296875 -0.296875 -0.46875 -0.6875q-0.171875 -0.40625 -0.171875 -0.84375q0 -0.46875 0.171875 -0.875q0.171875 -0.40625 0.46875 -0.6875q0.296875 -0.296875 0.6875 -0.46875q0.40625 -0.1875 0.859375 -0.1875q0.453125 0 0.859375 0.1875q0.40625 0.171875 0.703125 0.46875q0.3125 0.28125 0.484375 0.6875q0.1875 0.40625 0.1875 0.875zm8.103592 18.765625q-1.859375 0 -2.875 -1.046875q-1.0 -1.0625 -1.0 -2.921875l0 -8.03125l-1.453125 0q-0.28125 0 -0.484375 -0.171875q-0.203125 -0.1875 -0.203125 -0.546875l0 -1.375l2.3125 -0.375l0.71875 -3.921875q0.0625 -0.28125 0.265625 -0.4375q0.203125 -0.15625 0.515625 -0.15625l1.78125 0l0 4.53125l3.78125 0l0 2.453125l-3.78125 0l0 7.796875q0 0.671875 0.328125 1.046875q0.34375 0.375 0.90625 0.375q0.328125 0 0.546875 -0.078125q0.21875 -0.078125 0.375 -0.15625q0.15625 -0.09375 0.28125 -0.15625q0.125 -0.078125 0.25 -0.078125q0.15625 0 0.25 0.078125q0.109375 0.0625 0.21875 0.21875l1.03125 1.6875q-0.75 0.625 -1.734375 0.953125q-0.984375 0.3125 -2.03125 0.3125zm11.724304 -0.21875l0 -20.25l6.984375 0q1.984375 0 3.390625 0.390625q1.40625 0.375 2.3125 1.078125q0.90625 0.6875 1.328125 1.6875q0.421875 1.0 0.421875 2.234375q0 0.71875 -0.21875 1.375q-0.203125 0.640625 -0.65625 1.21875q-0.4375 0.5625 -1.125 1.03125q-0.671875 0.453125 -1.609375 0.78125q4.171875 0.9375 4.171875 4.5q0 1.296875 -0.484375 2.390625q-0.484375 1.078125 -1.421875 1.875q-0.9375 0.796875 -2.3125 1.25q-1.375 0.4375 -3.140625 0.4375l-7.640625 0zm3.765625 -8.875l0 5.9375l3.8125 0q1.0625 0 1.765625 -0.25q0.703125 -0.25 1.125 -0.671875q0.4375 -0.421875 0.625 -0.984375q0.1875 -0.5625 0.1875 -1.1875q0 -0.65625 -0.21875 -1.171875q-0.203125 -0.53125 -0.65625 -0.90625q-0.4375 -0.375 -1.140625 -0.5625q-0.703125 -0.203125 -1.6875 -0.203125l-3.8125 0zm0 -2.609375l3.0 0q1.921875 0 2.90625 -0.6875q1.0 -0.703125 1.0 -2.234375q0 -1.578125 -0.890625 -2.25q-0.890625 -0.671875 -2.796875 -0.671875l-3.21875 0l0 5.84375zm14.273178 11.484375l0 -14.359375l2.03125 0q0.53125 0 0.734375 0.203125q0.21875 0.1875 0.296875 0.65625l0.203125 1.734375q0.765625 -1.328125 1.796875 -2.09375q1.046875 -0.765625 2.328125 -0.765625q1.0625 0 1.765625 0.484375l-0.4375 2.59375q-0.046875 0.25 -0.1875 0.359375q-0.140625 0.09375 -0.375 0.09375q-0.21875 0 -0.578125 -0.09375q-0.359375 -0.09375 -0.96875 -0.09375q-1.078125 0 -1.84375 0.59375q-0.765625 0.59375 -1.296875 1.734375l0 8.953125l-3.46875 0zm17.375458 -14.59375q1.359375 0 2.5 0.4375q1.140625 0.4375 1.96875 1.28125q0.828125 0.828125 1.28125 2.046875q0.46875 1.203125 0.46875 2.75q0 0.390625 -0.03125 0.65625q-0.03125 0.25 -0.125 0.40625q-0.09375 0.140625 -0.25 0.203125q-0.15625 0.0625 -0.390625 0.0625l-8.875 0q0.15625 2.21875 1.1875 3.25q1.03125 1.03125 2.75 1.03125q0.828125 0 1.4375 -0.1875q0.609375 -0.203125 1.0625 -0.4375q0.46875 -0.234375 0.796875 -0.421875q0.34375 -0.203125 0.671875 -0.203125q0.21875 0 0.359375 0.078125q0.15625 0.078125 0.265625 0.234375l1.015625 1.265625q-0.578125 0.671875 -1.296875 1.125q-0.703125 0.453125 -1.484375 0.734375q-0.78125 0.265625 -1.59375 0.375q-0.796875 0.109375 -1.546875 0.109375q-1.5 0 -2.796875 -0.484375q-1.28125 -0.5 -2.234375 -1.46875q-0.953125 -0.984375 -1.5 -2.40625q-0.546875 -1.4375 -0.546875 -3.328125q0 -1.46875 0.46875 -2.765625q0.484375 -1.296875 1.375 -2.25q0.890625 -0.96875 2.171875 -1.53125q1.28125 -0.5625 2.890625 -0.5625zm0.078125 2.484375q-1.515625 0 -2.375 0.859375q-0.84375 0.84375 -1.09375 2.421875l6.5 0q0 -0.671875 -0.1875 -1.265625q-0.171875 -0.609375 -0.5625 -1.046875q-0.375 -0.453125 -0.953125 -0.703125q-0.5625 -0.265625 -1.328125 -0.265625zm20.215942 12.109375l-1.5625 0q-0.484375 0 -0.765625 -0.140625q-0.28125 -0.15625 -0.421875 -0.59375l-0.3125 -1.03125q-0.546875 0.484375 -1.078125 0.859375q-0.515625 0.375 -1.078125 0.625q-0.546875 0.25 -1.1875 0.375q-0.625 0.125 -1.390625 0.125q-0.921875 0 -1.6875 -0.234375q-0.765625 -0.25 -1.328125 -0.734375q-0.546875 -0.5 -0.859375 -1.21875q-0.296875 -0.734375 -0.296875 -1.703125q0 -0.8125 0.421875 -1.59375q0.421875 -0.796875 1.40625 -1.4375q1.0 -0.640625 2.65625 -1.046875q1.65625 -0.421875 4.109375 -0.484375l0 -0.84375q0 -1.4375 -0.609375 -2.125q-0.609375 -0.703125 -1.78125 -0.703125q-0.828125 0 -1.390625 0.203125q-0.5625 0.1875 -0.984375 0.4375q-0.40625 0.25 -0.765625 0.453125q-0.34375 0.1875 -0.765625 0.1875q-0.34375 0 -0.59375 -0.171875q-0.25 -0.1875 -0.40625 -0.453125l-0.625 -1.109375q2.46875 -2.265625 5.96875 -2.265625q1.265625 0 2.25 0.421875q0.984375 0.40625 1.671875 1.140625q0.6875 0.734375 1.046875 1.75q0.359375 1.015625 0.359375 2.234375l0 9.078125zm-6.71875 -2.15625q0.53125 0 0.96875 -0.09375q0.453125 -0.109375 0.84375 -0.296875q0.40625 -0.203125 0.78125 -0.484375q0.375 -0.28125 0.75 -0.671875l0 -2.421875q-1.515625 0.0625 -2.53125 0.25q-1.015625 0.1875 -1.640625 0.484375q-0.609375 0.296875 -0.875 0.6875q-0.25 0.390625 -0.25 0.859375q0 0.90625 0.53125 1.296875q0.546875 0.390625 1.421875 0.390625zm13.611053 -18.640625l0 11.90625l0.640625 0q0.359375 0 0.546875 -0.09375q0.203125 -0.109375 0.421875 -0.375l3.578125 -4.40625q0.234375 -0.28125 0.5 -0.4375q0.265625 -0.15625 0.703125 -0.15625l3.15625 0l-4.453125 5.328125q-0.25 0.296875 -0.5 0.546875q-0.25 0.234375 -0.546875 0.421875q0.296875 0.203125 0.515625 0.484375q0.234375 0.28125 0.453125 0.609375l4.78125 6.96875l-3.109375 0q-0.40625 0 -0.6875 -0.140625q-0.28125 -0.140625 -0.5 -0.46875l-3.65625 -5.453125q-0.21875 -0.328125 -0.4375 -0.421875q-0.203125 -0.09375 -0.625 -0.09375l-0.78125 0l0 6.578125l-3.453125 0l0 -20.796875l3.453125 0zm17.03946 6.203125q1.3593445 0 2.4999695 0.4375q1.140625 0.4375 1.96875 1.28125q0.828125 0.828125 1.28125 2.046875q0.46875 1.203125 0.46875 2.75q0 0.390625 -0.03125 0.65625q-0.03125 0.25 -0.125 0.40625q-0.09375 0.140625 -0.25 0.203125q-0.15625 0.0625 -0.390625 0.0625l-8.8749695 0q0.15625 2.21875 1.1875 3.25q1.03125 1.03125 2.7499695 1.03125q0.828125 0 1.4375 -0.1875q0.609375 -0.203125 1.0625 -0.4375q0.46875 -0.234375 0.796875 -0.421875q0.34375 -0.203125 0.671875 -0.203125q0.21875 0 0.359375 0.078125q0.15625 0.078125 0.265625 0.234375l1.015625 1.265625q-0.578125 0.671875 -1.296875 1.125q-0.703125 0.453125 -1.484375 0.734375q-0.78125 0.265625 -1.59375 0.375q-0.796875 0.109375 -1.5468445 0.109375q-1.5 0 -2.796875 -0.484375q-1.28125 -0.5 -2.234375 -1.46875q-0.953125 -0.984375 -1.5 -2.40625q-0.546875 -1.4375 -0.546875 -3.328125q0 -1.46875 0.46875 -2.765625q0.484375 -1.296875 1.375 -2.25q0.890625 -0.96875 2.171875 -1.53125q1.28125 -0.5625 2.890625 -0.5625zm0.078125 2.484375q-1.515625 0 -2.375 0.859375q-0.84375 0.84375 -1.09375 2.421875l6.4999695 0q0 -0.671875 -0.1875 -1.265625q-0.171875 -0.609375 -0.5625 -1.046875q-0.375 -0.453125 -0.953125 -0.703125q-0.5625 -0.265625 -1.3280945 -0.265625zm8.950287 12.109375l0 -14.359375l2.03125 0q0.53125 0 0.734375 0.203125q0.21875 0.1875 0.296875 0.65625l0.203125 1.734375q0.765625 -1.328125 1.796875 -2.09375q1.046875 -0.765625 2.328125 -0.765625q1.0625 0 1.765625 0.484375l-0.4375 2.59375q-0.046875 0.25 -0.1875 0.359375q-0.140625 0.09375 -0.375 0.09375q-0.21875 0 -0.578125 -0.09375q-0.359375 -0.09375 -0.96875 -0.09375q-1.078125 0 -1.84375 0.59375q-0.765625 0.59375 -1.296875 1.734375l0 8.953125l-3.46875 0zm20.9357 -7.125l0 7.125l-3.765625 0l0 -20.25l6.59375 0q2.03125 0 3.515625 0.484375q1.484375 0.46875 2.4375 1.328125q0.96875 0.859375 1.4375 2.046875q0.46875 1.1875 0.46875 2.59375q0 1.484375 -0.5 2.703125q-0.484375 1.21875 -1.46875 2.109375q-0.984375 0.875 -2.453125 1.375q-1.46875 0.484375 -3.4375 0.484375l-2.828125 0zm0 -2.9375l2.828125 0q1.03125 0 1.796875 -0.25q0.78125 -0.265625 1.28125 -0.75q0.5 -0.484375 0.75 -1.171875q0.265625 -0.703125 0.265625 -1.5625q0 -0.8125 -0.265625 -1.46875q-0.25 -0.65625 -0.75 -1.109375q-0.5 -0.46875 -1.28125 -0.703125q-0.765625 -0.25 -1.796875 -0.25l-2.828125 0l0 7.265625zm23.971802 10.0625l-1.5625 0q-0.484375 0 -0.765625 -0.140625q-0.28125 -0.15625 -0.421875 -0.59375l-0.3125 -1.03125q-0.546875 0.484375 -1.078125 0.859375q-0.515625 0.375 -1.078125 0.625q-0.546875 0.25 -1.1875 0.375q-0.625 0.125 -1.390625 0.125q-0.921875 0 -1.6875 -0.234375q-0.765625 -0.25 -1.328125 -0.734375q-0.546875 -0.5 -0.859375 -1.21875q-0.296875 -0.734375 -0.296875 -1.703125q0 -0.8125 0.421875 -1.59375q0.421875 -0.796875 1.40625 -1.4375q1.0 -0.640625 2.65625 -1.046875q1.65625 -0.421875 4.109375 -0.484375l0 -0.84375q0 -1.4375 -0.609375 -2.125q-0.609375 -0.703125 -1.78125 -0.703125q-0.828125 0 -1.390625 0.203125q-0.5625 0.1875 -0.984375 0.4375q-0.40625 0.25 -0.765625 0.453125q-0.34375 0.1875 -0.765625 0.1875q-0.34375 0 -0.59375 -0.171875q-0.25 -0.1875 -0.40625 -0.453125l-0.625 -1.109375q2.46875 -2.265625 5.96875 -2.265625q1.265625 0 2.25 0.421875q0.984375 0.40625 1.671875 1.140625q0.6875 0.734375 1.046875 1.75q0.359375 1.015625 0.359375 2.234375l0 9.078125zm-6.71875 -2.15625q0.53125 0 0.96875 -0.09375q0.453125 -0.109375 0.84375 -0.296875q0.40625 -0.203125 0.78125 -0.484375q0.375 -0.28125 0.75 -0.671875l0 -2.421875q-1.515625 0.0625 -2.53125 0.25q-1.015625 0.1875 -1.640625 0.484375q-0.609375 0.296875 -0.875 0.6875q-0.25 0.390625 -0.25 0.859375q0 0.90625 0.53125 1.296875q0.546875 0.390625 1.421875 0.390625zm14.829803 2.375q-1.859375 0 -2.875 -1.046875q-1.0 -1.0625 -1.0 -2.921875l0 -8.03125l-1.453125 0q-0.28125 0 -0.484375 -0.171875q-0.203125 -0.1875 -0.203125 -0.546875l0 -1.375l2.3125 -0.375l0.71875 -3.921875q0.0625 -0.28125 0.265625 -0.4375q0.203125 -0.15625 0.515625 -0.15625l1.78125 0l0 4.53125l3.78125 0l0 2.453125l-3.78125 0l0 7.796875q0 0.671875 0.328125 1.046875q0.34375 0.375 0.90625 0.375q0.328125 0 0.546875 -0.078125q0.21875 -0.078125 0.375 -0.15625q0.15625 -0.09375 0.28125 -0.15625q0.125 -0.078125 0.25 -0.078125q0.15625 0 0.25 0.078125q0.109375 0.0625 0.21875 0.21875l1.03125 1.6875q-0.75 0.625 -1.734375 0.953125q-0.984375 0.3125 -2.03125 0.3125zm10.835968 0q-1.859375 0 -2.875 -1.046875q-1.0 -1.0625 -1.0 -2.921875l0 -8.03125l-1.453125 0q-0.28125 0 -0.484375 -0.171875q-0.203125 -0.1875 -0.203125 -0.546875l0 -1.375l2.3125 -0.375l0.71875 -3.921875q0.0625 -0.28125 0.265625 -0.4375q0.203125 -0.15625 0.515625 -0.15625l1.78125 0l0 4.53125l3.78125 0l0 2.453125l-3.78125 0l0 7.796875q0 0.671875 0.328125 1.046875q0.34375 0.375 0.90625 0.375q0.328125 0 0.546875 -0.078125q0.21875 -0.078125 0.375 -0.15625q0.15625 -0.09375 0.28125 -0.15625q0.125 -0.078125 0.25 -0.078125q0.15625 0 0.25 0.078125q0.109375 0.0625 0.21875 0.21875l1.03125 1.6875q-0.75 0.625 -1.734375 0.953125q-0.984375 0.3125 -2.03125 0.3125zm12.054718 -14.8125q1.359375 0 2.5 0.4375q1.140625 0.4375 1.96875 1.28125q0.828125 0.828125 1.28125 2.046875q0.46875 1.203125 0.46875 2.75q0 0.390625 -0.03125 0.65625q-0.03125 0.25 -0.125 0.40625q-0.09375 0.140625 -0.25 0.203125q-0.15625 0.0625 -0.390625 0.0625l-8.875 0q0.15625 2.21875 1.1875 3.25q1.03125 1.03125 2.75 1.03125q0.828125 0 1.4375 -0.1875q0.609375 -0.203125 1.0625 -0.4375q0.46875 -0.234375 0.796875 -0.421875q0.34375 -0.203125 0.671875 -0.203125q0.21875 0 0.359375 0.078125q0.15625 0.078125 0.265625 0.234375l1.015625 1.265625q-0.578125 0.671875 -1.296875 1.125q-0.703125 0.453125 -1.484375 0.734375q-0.78125 0.265625 -1.59375 0.375q-0.796875 0.109375 -1.546875 0.109375q-1.5 0 -2.796875 -0.484375q-1.28125 -0.5 -2.234375 -1.46875q-0.953125 -0.984375 -1.5 -2.40625q-0.546875 -1.4375 -0.546875 -3.328125q0 -1.46875 0.46875 -2.765625q0.484375 -1.296875 1.375 -2.25q0.890625 -0.96875 2.171875 -1.53125q1.28125 -0.5625 2.890625 -0.5625zm0.078125 2.484375q-1.515625 0 -2.375 0.859375q-0.84375 0.84375 -1.09375 2.421875l6.5 0q0 -0.671875 -0.1875 -1.265625q-0.171875 -0.609375 -0.5625 -1.046875q-0.375 -0.453125 -0.953125 -0.703125q-0.5625 -0.265625 -1.328125 -0.265625zm8.950317 12.109375l0 -14.359375l2.03125 0q0.53125 0 0.734375 0.203125q0.21875 0.1875 0.296875 0.65625l0.203125 1.734375q0.765625 -1.328125 1.796875 -2.09375q1.046875 -0.765625 2.328125 -0.765625q1.0625 0 1.765625 0.484375l-0.4375 2.59375q-0.046875 0.25 -0.1875 0.359375q-0.140625 0.09375 -0.375 0.09375q-0.21875 0 -0.578125 -0.09375q-0.359375 -0.09375 -0.96875 -0.09375q-1.078125 0 -1.84375 0.59375q-0.765625 0.59375 -1.296875 1.734375l0 8.953125l-3.46875 0zm11.437927 0l0 -14.359375l2.125 0q0.671875 0 0.875 0.625l0.234375 1.140625q0.4375 -0.453125 0.921875 -0.8125q0.484375 -0.375 1.015625 -0.640625q0.546875 -0.265625 1.15625 -0.40625q0.625 -0.140625 1.34375 -0.140625q1.1875 0 2.09375 0.40625q0.90625 0.390625 1.515625 1.125q0.609375 0.71875 0.921875 1.71875q0.3125 1.0 0.3125 2.203125l0 9.140625l-3.453125 0l0 -9.140625q0 -1.3125 -0.609375 -2.03125q-0.609375 -0.734375 -1.828125 -0.734375q-0.890625 0 -1.6875 0.40625q-0.78125 0.40625 -1.46875 1.109375l0 10.390625l-3.46875 0z" fill-rule="nonzero"/><g filter="url(#shadowFilter-g13eb762cda7_0_305.1)"><use xlink:href="#g13eb762cda7_0_305.1" transform="matrix(1.0 0.0 0.0 1.0 0.0 2.0)"/></g><defs><filter id="shadowFilter-g13eb762cda7_0_305.1" filterUnits="userSpaceOnUse"><feGaussianBlur in="SourceAlpha" stdDeviation="2.0" result="blur"/><feComponentTransfer in="blur" color-interpolation-filters="sRGB"><feFuncR type="linear" slope="0" intercept="0.0"/><feFuncG type="linear" slope="0" intercept="0.0"/><feFuncB type="linear" slope="0" intercept="0.0"/><feFuncA type="linear" slope="0.5" intercept="0"/></feComponentTransfer></filter></defs><g id="g13eb762cda7_0_305.1"><path fill="#eeff41" d="m588.1811 335.66666l0 0c0 -8.58432 6.9589844 -15.543304 15.543335 -15.543304l155.81104 0c4.1223145 0 8.075806 1.6376038 10.990723 4.5525513c2.914978 2.914917 4.5525513 6.868408 4.5525513 10.990753l0 62.17325c0 8.58432 -6.9589844 15.543304 -15.543274 15.543304l-155.81104 0c-8.584351 0 -15.543335 -6.9589844 -15.543335 -15.543304z" fill-rule="evenodd"/><path stroke="#eeff41" stroke-width="2.0" stroke-linejoin="round" stroke-linecap="butt" d="m588.1811 335.66666l0 0c0 -8.58432 6.9589844 -15.543304 15.543335 -15.543304l155.81104 0c4.1223145 0 8.075806 1.6376038 10.990723 4.5525513c2.914978 2.914917 4.5525513 6.868408 4.5525513 10.990753l0 62.17325c0 8.58432 -6.9589844 15.543304 -15.543274 15.543304l-155.81104 0c-8.584351 0 -15.543335 -6.9589844 -15.543335 -15.543304z" fill-rule="evenodd"/><path fill="#000000" d="m668.26874 361.51328l-2.21875 0l0 -7.390625l-8.734375 0l0 7.390625l-2.21875 0l0 -16.234375l2.21875 0l0 7.234375l8.734375 0l0 -7.234375l2.21875 0l0 16.234375zm17.315796 0l-1.703125 0q-0.296875 0 -0.484375 -0.140625q-0.171875 -0.15625 -0.265625 -0.375l-1.515625 -3.921875l-7.28125 0l-1.515625 3.921875q-0.078125 0.203125 -0.28125 0.359375q-0.1875 0.15625 -0.46875 0.15625l-1.703125 0l6.5 -16.234375l2.234375 0l6.484375 16.234375zm-10.640625 -6.03125l6.0625 0l-2.546875 -6.59375q-0.25 -0.625 -0.484375 -1.53125q-0.125 0.453125 -0.25 0.84375q-0.109375 0.390625 -0.234375 0.6875l-2.546875 6.59375zm14.890747 4.1875l7.015625 0l0 1.84375l-9.21875 0l0 -16.234375l2.203125 0l0 14.390625zm19.44226 -14.390625l0 1.796875l-7.78125 0l0 5.671875l6.65625 0l0 1.78125l-6.65625 0l0 6.984375l-2.21875 0l0 -16.234375l10.0 0z" fill-rule="nonzero"/><path fill="#000000" d="m667.5695 380.4039q0 1.828125 -0.578125 3.359375q-0.578125 1.515625 -1.640625 2.609375q-1.046875 1.09375 -2.53125 1.703125q-1.46875 0.609375 -3.25 0.609375q-1.796875 0 -3.265625 -0.609375q-1.46875 -0.609375 -2.53125 -1.703125q-1.046875 -1.09375 -1.625 -2.609375q-0.578125 -1.53125 -0.578125 -3.359375q0 -1.828125 0.578125 -3.34375q0.578125 -1.53125 1.625 -2.625q1.0625 -1.109375 2.53125 -1.71875q1.46875 -0.625 3.265625 -0.625q1.78125 0 3.25 0.625q1.484375 0.609375 2.53125 1.71875q1.0625 1.09375 1.640625 2.625q0.578125 1.515625 0.578125 3.34375zm-2.25 0q0 -1.5 -0.40625 -2.6875q-0.40625 -1.1875 -1.15625 -2.0q-0.75 -0.828125 -1.8125 -1.265625q-1.0625 -0.453125 -2.375 -0.453125q-1.3125 0 -2.375 0.453125q-1.0625 0.4375 -1.828125 1.265625q-0.75 0.8125 -1.15625 2.0q-0.40625 1.1875 -0.40625 2.6875q0 1.5 0.40625 2.6875q0.40625 1.171875 1.15625 2.0q0.765625 0.8125 1.828125 1.25q1.0625 0.4375 2.375 0.4375q1.3125 0 2.375 -0.4375q1.0625 -0.4375 1.8125 -1.25q0.75 -0.828125 1.15625 -2.0q0.40625 -1.1875 0.40625 -2.6875zm7.673584 2.03125l0 6.078125l-2.1875 0l0 -16.234375l4.78125 0q1.546875 0 2.6875 0.359375q1.140625 0.359375 1.875 1.015625q0.75 0.65625 1.109375 1.59375q0.375 0.921875 0.375 2.0625q0 1.125 -0.390625 2.078125q-0.390625 0.9375 -1.15625 1.625q-0.765625 0.671875 -1.90625 1.046875q-1.125 0.375 -2.59375 0.375l-2.59375 0zm0 -1.734375l2.59375 0q0.953125 0 1.671875 -0.25q0.71875 -0.25 1.203125 -0.6875q0.484375 -0.453125 0.734375 -1.078125q0.25 -0.625 0.25 -1.375q0 -1.546875 -0.96875 -2.421875q-0.953125 -0.875 -2.890625 -0.875l-2.59375 0l0 6.6875zm21.421204 -8.421875l0 1.796875l-7.78125 0l0 5.390625l6.296875 0l0 1.71875l-6.296875 0l0 5.53125l7.78125 0l0 1.796875l-10.0 0l0 -16.234375l10.0 0zm4.304016 0q0.296875 0 0.4375 0.078125q0.140625 0.0625 0.3125 0.296875l9.40625 12.234375q-0.03125 -0.296875 -0.046875 -0.5625q-0.015625 -0.28125 -0.015625 -0.546875l0 -11.5l1.9375 0l0 16.234375l-1.109375 0q-0.265625 0 -0.453125 -0.09375q-0.171875 -0.09375 -0.328125 -0.296875l-9.390625 -12.234375q0.015625 0.28125 0.015625 0.5625q0.015625 0.265625 0.015625 0.5l0 11.5625l-1.921875 0l0 -16.234375l1.140625 0l0 0z" fill-rule="nonzero"/></g><g filter="url(#shadowFilter-g13eb762cda7_0_305.2)"><use xlink:href="#g13eb762cda7_0_305.2" transform="matrix(1.0 0.0 0.0 1.0 0.0 2.0)"/></g><defs><filter id="shadowFilter-g13eb762cda7_0_305.2" filterUnits="userSpaceOnUse"><feGaussianBlur in="SourceAlpha" stdDeviation="2.0" result="blur"/><feComponentTransfer in="blur" color-interpolation-filters="sRGB"><feFuncR type="linear" slope="0" intercept="0.0"/><feFuncG type="linear" slope="0" intercept="0.0"/><feFuncB type="linear" slope="0" intercept="0.0"/><feFuncA type="linear" slope="0.5" intercept="0"/></feComponentTransfer></filter></defs><g id="g13eb762cda7_0_305.2"><path fill="#54bee8" d="m71.77428 278.1601l0 0c0 -8.58432 6.9589767 -15.543304 15.543312 -15.543304l186.99213 0c4.122345 0 8.075836 1.6376038 10.990753 4.5525513c2.9149475 2.914917 4.5525513 6.868408 4.5525513 10.990753l0 62.17325c0 8.58432 -6.9589844 15.543304 -15.543304 15.543304l-186.99213 0c-8.584335 0 -15.543312 -6.9589844 -15.543312 -15.543304z" fill-rule="evenodd"/><path stroke="#54bee8" stroke-width="2.0" stroke-linejoin="round" stroke-linecap="butt" d="m71.77428 278.1601l0 0c0 -8.58432 6.9589767 -15.543304 15.543312 -15.543304l186.99213 0c4.122345 0 8.075836 1.6376038 10.990753 4.5525513c2.9149475 2.914917 4.5525513 6.868408 4.5525513 10.990753l0 62.17325c0 8.58432 -6.9589844 15.543304 -15.543304 15.543304l-186.99213 0c-8.584335 0 -15.543312 -6.9589844 -15.543312 -15.543304z" fill-rule="evenodd"/><path fill="#000000" d="m149.16446 314.23984q0.203125 0 0.359375 0.15625l0.90625 0.984375q-1.0625 1.234375 -2.5625 1.921875q-1.5 0.671875 -3.625 0.671875q-1.859375 0 -3.375 -0.640625q-1.515625 -0.640625 -2.59375 -1.796875q-1.0625 -1.15625 -1.65625 -2.765625q-0.578125 -1.625 -0.578125 -3.578125q0 -1.9375 0.625 -3.5625q0.640625 -1.625 1.78125 -2.78125q1.140625 -1.171875 2.71875 -1.8125q1.59375 -0.640625 3.515625 -0.640625q1.890625 0 3.265625 0.59375q1.375 0.578125 2.453125 1.59375l-0.765625 1.0625q-0.078125 0.125 -0.1875 0.203125q-0.109375 0.078125 -0.3125 0.078125q-0.15625 0 -0.328125 -0.109375q-0.171875 -0.125 -0.421875 -0.28125q-0.234375 -0.171875 -0.5625 -0.359375q-0.3125 -0.203125 -0.765625 -0.359375q-0.4375 -0.171875 -1.03125 -0.28125q-0.59375 -0.125 -1.359375 -0.125q-1.375 0 -2.53125 0.484375q-1.140625 0.46875 -1.96875 1.34375q-0.828125 0.875 -1.296875 2.140625q-0.453125 1.25 -0.453125 2.8125q0 1.609375 0.453125 2.875q0.46875 1.25 1.265625 2.125q0.796875 0.875 1.890625 1.328125q1.09375 0.453125 2.359375 0.453125q0.765625 0 1.375 -0.078125q0.609375 -0.09375 1.125 -0.28125q0.53125 -0.203125 0.984375 -0.5q0.453125 -0.296875 0.90625 -0.703125q0.203125 -0.171875 0.390625 -0.171875zm6.6588593 1.59375l7.4375 0l0 1.953125l-9.765625 0l0 -17.203125l2.328125 0l0 15.25zm25.016708 -6.640625q0 1.9375 -0.609375 3.546875q-0.609375 1.609375 -1.734375 2.78125q-1.109375 1.15625 -2.6875 1.8125q-1.5625 0.640625 -3.453125 0.640625q-1.890625 0 -3.453125 -0.640625q-1.5625 -0.65625 -2.6875 -1.8125q-1.109375 -1.171875 -1.71875 -2.78125q-0.609375 -1.609375 -0.609375 -3.546875q0 -1.9375 0.609375 -3.546875q0.609375 -1.609375 1.71875 -2.78125q1.125 -1.171875 2.6875 -1.8125q1.5625 -0.65625 3.453125 -0.65625q1.890625 0 3.453125 0.65625q1.578125 0.640625 2.6875 1.8125q1.125 1.171875 1.734375 2.78125q0.609375 1.609375 0.609375 3.546875zm-2.390625 0q0 -1.578125 -0.4375 -2.84375q-0.421875 -1.265625 -1.21875 -2.125q-0.796875 -0.875 -1.921875 -1.34375q-1.125 -0.46875 -2.515625 -0.46875q-1.375 0 -2.515625 0.46875q-1.125 0.46875 -1.921875 1.34375q-0.796875 0.859375 -1.234375 2.125q-0.421875 1.265625 -0.421875 2.84375q0 1.578125 0.421875 2.84375q0.4375 1.25 1.234375 2.125q0.796875 0.859375 1.921875 1.328125q1.140625 0.453125 2.515625 0.453125q1.390625 0 2.515625 -0.453125q1.125 -0.46875 1.921875 -1.328125q0.796875 -0.875 1.21875 -2.125q0.4375 -1.265625 0.4375 -2.84375zm14.37088 -5.921875q-0.109375 0.1875 -0.234375 0.28125q-0.109375 0.09375 -0.296875 0.09375q-0.203125 0 -0.484375 -0.203125q-0.265625 -0.21875 -0.6875 -0.453125q-0.40625 -0.25 -0.984375 -0.453125q-0.578125 -0.203125 -1.40625 -0.203125q-0.78125 0 -1.390625 0.21875q-0.59375 0.203125 -1.0 0.5625q-0.390625 0.359375 -0.609375 0.84375q-0.203125 0.484375 -0.203125 1.046875q0 0.71875 0.359375 1.203125q0.359375 0.46875 0.9375 0.8125q0.578125 0.328125 1.3125 0.578125q0.75 0.234375 1.515625 0.5q0.78125 0.265625 1.515625 0.59375q0.734375 0.328125 1.3125 0.84375q0.59375 0.5 0.9375 1.234375q0.359375 0.734375 0.359375 1.796875q0 1.125 -0.390625 2.125q-0.375 0.984375 -1.125 1.71875q-0.734375 0.734375 -1.8125 1.15625q-1.0625 0.40625 -2.4375 0.40625q-1.65625 0 -3.03125 -0.59375q-1.375 -0.609375 -2.34375 -1.640625l0.671875 -1.109375q0.09375 -0.125 0.21875 -0.21875q0.140625 -0.09375 0.3125 -0.09375q0.25 0 0.578125 0.28125q0.328125 0.265625 0.8125 0.59375q0.484375 0.3125 1.171875 0.59375q0.6875 0.265625 1.6875 0.265625q0.828125 0 1.46875 -0.234375q0.65625 -0.234375 1.109375 -0.640625q0.453125 -0.421875 0.6875 -0.984375q0.234375 -0.578125 0.234375 -1.296875q0 -0.765625 -0.359375 -1.265625q-0.34375 -0.5 -0.921875 -0.828125q-0.578125 -0.34375 -1.3125 -0.578125q-0.734375 -0.234375 -1.515625 -0.484375q-0.765625 -0.25 -1.515625 -0.5625q-0.734375 -0.328125 -1.3125 -0.84375q-0.578125 -0.515625 -0.9375 -1.28125q-0.34375 -0.78125 -0.34375 -1.921875q0 -0.921875 0.34375 -1.765625q0.359375 -0.859375 1.03125 -1.515625q0.671875 -0.65625 1.65625 -1.046875q1.0 -0.40625 2.28125 -0.40625q1.453125 0 2.640625 0.46875q1.1875 0.453125 2.0625 1.3125l-0.5625 1.09375zm14.516968 -2.6875l0 1.90625l-8.265625 0l0 5.703125l6.6875 0l0 1.828125l-6.6875 0l0 5.875l8.265625 0l0 1.890625l-10.59375 0l0 -17.203125l10.59375 0zm18.240967 8.609375q0 1.9375 -0.609375 3.53125q-0.609375 1.578125 -1.734375 2.703125q-1.109375 1.125 -2.671875 1.75q-1.546875 0.609375 -3.453125 0.609375l-6.421875 0l0 -17.203125l6.421875 0q1.90625 0 3.453125 0.625q1.5625 0.625 2.671875 1.765625q1.125 1.125 1.734375 2.703125q0.609375 1.578125 0.609375 3.515625zm-2.375 0q0 -1.578125 -0.4375 -2.828125q-0.4375 -1.25 -1.234375 -2.109375q-0.78125 -0.875 -1.90625 -1.328125q-1.125 -0.453125 -2.515625 -0.453125l-4.09375 0l0 13.421875l4.09375 0q1.390625 0 2.515625 -0.453125q1.125 -0.453125 1.90625 -1.3125q0.796875 -0.859375 1.234375 -2.109375q0.4375 -1.25 0.4375 -2.828125z" fill-rule="nonzero"/></g><g filter="url(#shadowFilter-g13eb762cda7_0_305.3)"><use xlink:href="#g13eb762cda7_0_305.3" transform="matrix(1.0 0.0 0.0 1.0 0.0 2.0)"/></g><defs><filter id="shadowFilter-g13eb762cda7_0_305.3" filterUnits="userSpaceOnUse"><feGaussianBlur in="SourceAlpha" stdDeviation="2.0" result="blur"/><feComponentTransfer in="blur" color-interpolation-filters="sRGB"><feFuncR type="linear" slope="0" intercept="0.0"/><feFuncG type="linear" slope="0" intercept="0.0"/><feFuncB type="linear" slope="0" intercept="0.0"/><feFuncA type="linear" slope="0.5" intercept="0"/></feComponentTransfer></filter></defs><g id="g13eb762cda7_0_305.3"><path fill="#c27ba0" d="m583.81104 77.98688l0 0c0 -8.584335 6.9589844 -15.543308 15.543274 -15.543308l155.81104 0c4.1223755 0 8.075867 1.6375923 10.990784 4.552532c2.914917 2.9149323 4.5525513 6.868431 4.5525513 10.990776l0 62.173233c0 8.58432 -6.9589844 15.543304 -15.543335 15.543304l-155.81104 0c-8.58429 0 -15.543274 -6.9589844 -15.543274 -15.543304z" fill-rule="evenodd"/><path stroke="#c27ba0" stroke-width="2.0" stroke-linejoin="round" stroke-linecap="butt" d="m583.81104 77.98688l0 0c0 -8.584335 6.9589844 -15.543308 15.543274 -15.543308l155.81104 0c4.1223755 0 8.075867 1.6375923 10.990784 4.552532c2.914917 2.9149323 4.5525513 6.868431 4.5525513 10.990776l0 62.173233c0 8.58432 -6.9589844 15.543304 -15.543335 15.543304l-155.81104 0c-8.58429 0 -15.543274 -6.9589844 -15.543274 -15.543304z" fill-rule="evenodd"/><path fill="#000000" d="m663.19946 109.22411q0 1.828125 -0.578125 3.359375q-0.578125 1.515625 -1.640625 2.609375q-1.046875 1.09375 -2.53125 1.703125q-1.46875 0.609375 -3.25 0.609375q-1.796875 0 -3.265625 -0.609375q-1.46875 -0.609375 -2.53125 -1.703125q-1.046875 -1.09375 -1.625 -2.609375q-0.578125 -1.53125 -0.578125 -3.359375q0 -1.828125 0.578125 -3.34375q0.578125 -1.53125 1.625 -2.625q1.0625 -1.109375 2.53125 -1.71875q1.46875 -0.625 3.265625 -0.625q1.78125 0 3.25 0.625q1.484375 0.609375 2.53125 1.71875q1.0625 1.09375 1.640625 2.625q0.578125 1.515625 0.578125 3.34375zm-2.25 0q0 -1.5 -0.40625 -2.6875q-0.40625 -1.1875 -1.15625 -2.0q-0.75 -0.828125 -1.8125 -1.265625q-1.0625 -0.453125 -2.375 -0.453125q-1.3125 0 -2.375 0.453125q-1.0625 0.4375 -1.828125 1.265625q-0.75 0.8125 -1.15625 2.0q-0.40625 1.1875 -0.40625 2.6875q0 1.5 0.40625 2.6875q0.40625 1.171875 1.15625 2.0q0.765625 0.8125 1.828125 1.25q1.0625 0.4375 2.375 0.4375q1.3125 0 2.375 -0.4375q1.0625 -0.4375 1.8125 -1.25q0.75 -0.828125 1.15625 -2.0q0.40625 -1.1875 0.40625 -2.6875zm7.673584 2.03125l0 6.078125l-2.1875 0l0 -16.234375l4.78125 0q1.546875 0 2.6875 0.359375q1.140625 0.359375 1.875 1.015625q0.75 0.65625 1.109375 1.59375q0.375 0.921875 0.375 2.0625q0 1.125 -0.390625 2.078125q-0.390625 0.9375 -1.15625 1.625q-0.765625 0.671875 -1.90625 1.046875q-1.125 0.375 -2.59375 0.375l-2.59375 0zm0 -1.734375l2.59375 0q0.953125 0 1.671875 -0.25q0.71875 -0.25 1.203125 -0.6875q0.484375 -0.453125 0.734375 -1.078125q0.25 -0.625 0.25 -1.375q0 -1.546875 -0.96875 -2.421875q-0.953125 -0.875 -2.890625 -0.875l-2.59375 0l0 6.6875zm21.421204 -8.421875l0 1.796875l-7.78125 0l0 5.390625l6.296875 0l0 1.71875l-6.296875 0l0 5.53125l7.78125 0l0 1.796875l-10.0 0l0 -16.234375l10.0 0zm4.304016 0q0.296875 0 0.4375 0.078125q0.140625 0.0625 0.3125 0.296875l9.40625 12.234375q-0.03125 -0.296875 -0.046875 -0.5625q-0.015625 -0.28125 -0.015625 -0.546875l0 -11.5l1.9375 0l0 16.234375l-1.109375 0q-0.265625 0 -0.453125 -0.09375q-0.171875 -0.09375 -0.328125 -0.296875l-9.390625 -12.234375q0.015625 0.28125 0.015625 0.5625q0.015625 0.265625 0.015625 0.5l0 11.5625l-1.921875 0l0 -16.234375l1.140625 0l0 0z" fill-rule="nonzero"/></g><path fill="#000000" fill-opacity="0.0" d="m180.81364 262.6168l0 -153.5433l402.99213 0" fill-rule="evenodd"/><path stroke="#6fa8dc" stroke-width="4.0" stroke-linejoin="round" stroke-linecap="butt" d="m180.81364 262.6168l0 -153.5433l378.99213 0" fill-rule="evenodd"/><path fill="#6fa8dc" stroke="#6fa8dc" stroke-width="4.0" stroke-linecap="butt" d="m559.8058 115.68042l18.152405 -6.606926l-18.152405 -6.6069336z" fill-rule="evenodd"/><path fill="#000000" fill-opacity="0.0" d="m701.47504 155.80315l0 164.22047" fill-rule="evenodd"/><path stroke="#6fa8dc" stroke-width="4.0" stroke-linejoin="round" stroke-linecap="butt" d="m701.47504 155.80315l0 140.22047" fill-rule="evenodd"/><path fill="#6fa8dc" stroke="#6fa8dc" stroke-width="4.0" stroke-linecap="butt" d="m694.86816 296.02362l6.6068726 18.152405l6.6069336 -18.152405z" fill-rule="evenodd"/><path fill="#000000" fill-opacity="0.0" d="m637.895 317.3937l0 -158.96063" fill-rule="evenodd"/><path stroke="#6fa8dc" stroke-width="4.0" stroke-linejoin="round" stroke-linecap="butt" d="m637.895 317.3937l0 -134.96063" fill-rule="evenodd"/><path fill="#6fa8dc" stroke="#6fa8dc" stroke-width="4.0" stroke-linecap="butt" d="m644.50195 182.43307l-6.6069336 -18.15239l-6.6069336 18.15239z" fill-rule="evenodd"/><path fill="#000000" fill-opacity="0.0" d="m588.1811 366.7533l-149.16534 0l0 -57.51184l-149.16534 0" fill-rule="evenodd"/><path stroke="#6fa8dc" stroke-width="4.0" stroke-linejoin="round" stroke-linecap="butt" d="m588.1811 366.7533l-149.16534 0l0 -57.51184l-125.165344 0" fill-rule="evenodd"/><path fill="#6fa8dc" stroke="#6fa8dc" stroke-width="4.0" stroke-linecap="butt" d="m313.8504 302.63455l-18.152405 6.606903l18.152405 6.6069336z" fill-rule="evenodd"/><path fill="#000000" fill-opacity="0.0" d="m190.51181 112.191605l388.44095 0l0 42.015747l-388.44095 0z" fill-rule="evenodd"/><path fill="#000000" d="m200.98056 139.1116l0 -13.359375l5.921875 0q1.78125 0 2.703125 0.359375q0.9375 0.359375 1.484375 1.28125q0.5625 0.90625 0.5625 2.015625q0 1.40625 -0.921875 2.390625q-0.921875 0.96875 -2.84375 1.234375q0.703125 0.34375 1.078125 0.671875q0.765625 0.703125 1.453125 1.765625l2.328125 3.640625l-2.21875 0l-1.765625 -2.78125q-0.78125 -1.203125 -1.28125 -1.828125q-0.5 -0.640625 -0.90625 -0.890625q-0.390625 -0.265625 -0.796875 -0.359375q-0.296875 -0.078125 -0.984375 -0.078125l-2.046875 0l0 5.9375l-1.765625 0zm1.765625 -7.453125l3.796875 0q1.21875 0 1.890625 -0.25q0.6875 -0.265625 1.046875 -0.8125q0.359375 -0.546875 0.359375 -1.1875q0 -0.953125 -0.6875 -1.5625q-0.6875 -0.609375 -2.1875 -0.609375l-4.21875 0l0 4.421875zm18.097946 4.34375l1.6875 0.203125q-0.40625 1.484375 -1.484375 2.3125q-1.078125 0.8125 -2.765625 0.8125q-2.125 0 -3.375 -1.296875q-1.234375 -1.3125 -1.234375 -3.671875q0 -2.453125 1.25 -3.796875q1.265625 -1.34375 3.265625 -1.34375q1.9375 0 3.15625 1.328125q1.234375 1.3125 1.234375 3.703125q0 0.15625 0 0.4375l-7.21875 0q0.09375 1.59375 0.90625 2.453125q0.8125 0.84375 2.015625 0.84375q0.90625 0 1.546875 -0.46875q0.640625 -0.484375 1.015625 -1.515625zm-5.390625 -2.65625l5.40625 0q-0.109375 -1.21875 -0.625 -1.828125q-0.78125 -0.953125 -2.03125 -0.953125q-1.125 0 -1.90625 0.765625q-0.765625 0.75 -0.84375 2.015625zm15.297592 9.46875l0 -4.734375q-0.375 0.546875 -1.0625 0.90625q-0.6875 0.34375 -1.46875 0.34375q-1.71875 0 -2.96875 -1.375q-1.234375 -1.375 -1.234375 -3.765625q0 -1.46875 0.5 -2.625q0.515625 -1.15625 1.46875 -1.75q0.96875 -0.59375 2.109375 -0.59375q1.796875 0 2.828125 1.515625l0 -1.296875l1.46875 0l0 13.375l-1.640625 0zm-5.046875 -8.5625q0 1.859375 0.78125 2.796875q0.78125 0.9375 1.875 0.9375q1.046875 0 1.796875 -0.890625q0.765625 -0.890625 0.765625 -2.703125q0 -1.9375 -0.796875 -2.90625q-0.796875 -0.96875 -1.875 -0.96875q-1.0625 0 -1.8125 0.90625q-0.734375 0.90625 -0.734375 2.828125zm15.594467 4.859375l0 -1.421875q-1.125 1.640625 -3.0625 1.640625q-0.859375 0 -1.609375 -0.328125q-0.734375 -0.328125 -1.09375 -0.828125q-0.359375 -0.5 -0.5 -1.21875q-0.109375 -0.46875 -0.109375 -1.53125l0 -5.984375l1.640625 0l0 5.359375q0 1.28125 0.109375 1.734375q0.15625 0.640625 0.65625 1.015625q0.5 0.375 1.234375 0.375q0.734375 0 1.375 -0.375q0.65625 -0.390625 0.921875 -1.03125q0.265625 -0.65625 0.265625 -1.890625l0 -5.1875l1.640625 0l0 9.671875l-1.46875 0zm10.672592 -3.109375l1.6875 0.203125q-0.40625 1.484375 -1.484375 2.3125q-1.078125 0.8125 -2.765625 0.8125q-2.125 0 -3.375 -1.296875q-1.234375 -1.3125 -1.234375 -3.671875q0 -2.453125 1.25 -3.796875q1.265625 -1.34375 3.265625 -1.34375q1.9375 0 3.15625 1.328125q1.234375 1.3125 1.234375 3.703125q0 0.15625 0 0.4375l-7.21875 0q0.09375 1.59375 0.90625 2.453125q0.8125 0.84375 2.015625 0.84375q0.90625 0 1.546875 -0.46875q0.640625 -0.484375 1.015625 -1.515625zm-5.390625 -2.65625l5.40625 0q-0.109375 -1.21875 -0.625 -1.828125q-0.78125 -0.953125 -2.03125 -0.953125q-1.125 0 -1.90625 0.765625q-0.765625 0.75 -0.84375 2.015625zm8.485092 2.875l1.6250153 -0.25q0.125 0.96875 0.75 1.5q0.625 0.515625 1.75 0.515625q1.125 0 1.671875 -0.453125q0.546875 -0.46875 0.546875 -1.09375q0 -0.546875 -0.484375 -0.875q-0.328125 -0.21875 -1.671875 -0.546875q-1.8125 -0.46875 -2.515625 -0.796875q-0.6875 -0.328125 -1.0468903 -0.90625q-0.359375 -0.59375 -0.359375 -1.3125q0 -0.640625 0.296875 -1.1875q0.296875 -0.5625 0.81251526 -0.921875q0.375 -0.28125 1.03125 -0.46875q0.671875 -0.203125 1.421875 -0.203125q1.140625 0 2.0 0.328125q0.859375 0.328125 1.265625 0.890625q0.421875 0.5625 0.578125 1.5l-1.609375 0.21875q-0.109375 -0.75 -0.640625 -1.171875q-0.515625 -0.421875 -1.46875 -0.421875q-1.140625 0 -1.625 0.375q-0.46875 0.375 -0.46875 0.875q0 0.3125 0.1875 0.578125q0.203125 0.265625 0.640625 0.4375q0.234375 0.09375 1.4375 0.421875q1.75 0.453125 2.4375 0.75q0.6875 0.296875 1.078125 0.859375q0.390625 0.5625 0.390625 1.40625q0 0.828125 -0.484375 1.546875q-0.46875 0.71875 -1.375 1.125q-0.90625 0.390625 -2.046875 0.390625q-1.875 0 -2.875 -0.78125q-0.98439026 -0.78125 -1.2500153 -2.328125zm13.562515 1.421875l0.234375 1.453125q-0.6875 0.140625 -1.234375 0.140625q-0.890625 0 -1.390625 -0.28125q-0.484375 -0.28125 -0.6875 -0.734375q-0.203125 -0.46875 -0.203125 -1.9375l0 -5.578125l-1.203125 0l0 -1.265625l1.203125 0l0 -2.390625l1.625 -0.984375l0 3.375l1.65625 0l0 1.265625l-1.65625 0l0 5.671875q0 0.6875 0.078125 0.890625q0.09375 0.203125 0.28125 0.328125q0.203125 0.109375 0.578125 0.109375q0.265625 0 0.71875 -0.0625zm0.9489136 -1.421875l1.625 -0.25q0.125 0.96875 0.75 1.5q0.625 0.515625 1.75 0.515625q1.125 0 1.671875 -0.453125q0.546875 -0.46875 0.546875 -1.09375q0 -0.546875 -0.484375 -0.875q-0.328125 -0.21875 -1.671875 -0.546875q-1.8125 -0.46875 -2.515625 -0.796875q-0.6875 -0.328125 -1.046875 -0.90625q-0.359375 -0.59375 -0.359375 -1.3125q0 -0.640625 0.296875 -1.1875q0.296875 -0.5625 0.8125 -0.921875q0.375 -0.28125 1.03125 -0.46875q0.671875 -0.203125 1.421875 -0.203125q1.140625 0 2.0 0.328125q0.859375 0.328125 1.265625 0.890625q0.421875 0.5625 0.578125 1.5l-1.609375 0.21875q-0.109375 -0.75 -0.640625 -1.171875q-0.515625 -0.421875 -1.46875 -0.421875q-1.140625 0 -1.625 0.375q-0.46875 0.375 -0.46875 0.875q0 0.3125 0.1875 0.578125q0.203125 0.265625 0.640625 0.4375q0.234375 0.09375 1.4375 0.421875q1.75 0.453125 2.4375 0.75q0.6875 0.296875 1.078125 0.859375q0.390625 0.5625 0.390625 1.40625q0 0.828125 -0.484375 1.546875q-0.46875 0.71875 -1.375 1.125q-0.90625 0.390625 -2.046875 0.390625q-1.875 0 -2.875 -0.78125q-0.984375 -0.78125 -1.25 -2.328125zm15.558319 2.890625l0 -8.40625l-1.453125 0l0 -1.265625l1.453125 0l0 -1.03125q0 -0.96875 0.171875 -1.453125q0.234375 -0.640625 0.828125 -1.03125q0.59375 -0.390625 1.671875 -0.390625q0.6875 0 1.53125 0.15625l-0.25 1.4375q-0.5 -0.09375 -0.953125 -0.09375q-0.75 0 -1.0625 0.328125q-0.3125 0.3125 -0.3125 1.1875l0 0.890625l1.890625 0l0 1.265625l-1.890625 0l0 8.40625l-1.625 0zm11.105164 -1.1875q-0.921875 0.765625 -1.765625 1.09375q-0.828125 0.3125 -1.796875 0.3125q-1.59375 0 -2.453125 -0.78125q-0.859375 -0.78125 -0.859375 -1.984375q0 -0.71875 0.328125 -1.296875q0.328125 -0.59375 0.84375 -0.9375q0.53125 -0.359375 1.1875 -0.546875q0.46875 -0.125 1.453125 -0.25q1.984375 -0.234375 2.921875 -0.5625q0.015625 -0.34375 0.015625 -0.421875q0 -1.0 -0.46875 -1.421875q-0.625 -0.546875 -1.875 -0.546875q-1.15625 0 -1.703125 0.40625q-0.546875 0.40625 -0.8125 1.421875l-1.609375 -0.21875q0.21875 -1.015625 0.71875 -1.640625q0.5 -0.640625 1.453125 -0.984375q0.953125 -0.34375 2.1875 -0.34375q1.25 0 2.015625 0.296875q0.78125 0.28125 1.140625 0.734375q0.375 0.4375 0.515625 1.109375q0.078125 0.421875 0.078125 1.515625l0 2.1875q0 2.28125 0.109375 2.890625q0.109375 0.59375 0.40625 1.15625l-1.703125 0q-0.265625 -0.515625 -0.328125 -1.1875zm-0.140625 -3.671875q-0.890625 0.375 -2.671875 0.625q-1.015625 0.140625 -1.4375 0.328125q-0.421875 0.1875 -0.65625 0.53125q-0.21875 0.34375 -0.21875 0.78125q0 0.65625 0.5 1.09375q0.5 0.4375 1.453125 0.4375q0.9375 0 1.671875 -0.40625q0.75 -0.421875 1.09375 -1.140625q0.265625 -0.5625 0.265625 -1.640625l0 -0.609375zm4.2038574 -6.609375l0 -1.890625l1.640625 0l0 1.890625l-1.640625 0zm0 11.46875l0 -9.671875l1.640625 0l0 9.671875l-1.640625 0zm4.097931 0l0 -13.359375l1.640625 0l0 13.359375l-1.640625 0zm10.816711 -3.109375l1.6875 0.203125q-0.40625 1.484375 -1.484375 2.3125q-1.078125 0.8125 -2.765625 0.8125q-2.125 0 -3.375 -1.296875q-1.234375 -1.3125 -1.234375 -3.671875q0 -2.453125 1.25 -3.796875q1.265625 -1.34375 3.265625 -1.34375q1.9375 0 3.15625 1.328125q1.234375 1.3125 1.234375 3.703125q0 0.15625 0 0.4375l-7.21875 0q0.09375 1.59375 0.90625 2.453125q0.8125 0.84375 2.015625 0.84375q0.90625 0 1.546875 -0.46875q0.640625 -0.484375 1.015625 -1.515625zm-5.390625 -2.65625l5.40625 0q-0.109375 -1.21875 -0.625 -1.828125q-0.78125 -0.953125 -2.03125 -0.953125q-1.125 0 -1.90625 0.765625q-0.765625 0.75 -0.84375 2.015625zm15.406952 5.765625l0 -1.21875q-0.90625 1.4375 -2.703125 1.4375q-1.15625 0 -2.125 -0.640625q-0.96875 -0.640625 -1.5 -1.78125q-0.53125 -1.140625 -0.53125 -2.625q0 -1.453125 0.484375 -2.625q0.484375 -1.1875 1.4375 -1.8125q0.96875 -0.625 2.171875 -0.625q0.875 0 1.546875 0.375q0.6875 0.359375 1.109375 0.953125l0 -4.796875l1.640625 0l0 13.359375l-1.53125 0zm-5.171875 -4.828125q0 1.859375 0.78125 2.78125q0.78125 0.921875 1.84375 0.921875q1.078125 0 1.828125 -0.875q0.75 -0.890625 0.75 -2.6875q0 -1.984375 -0.765625 -2.90625q-0.765625 -0.9375 -1.890625 -0.9375q-1.078125 0 -1.8125 0.890625q-0.734375 0.890625 -0.734375 2.8125zm16.246521 4.828125l-2.96875 -9.671875l1.703125 0l1.53125 5.578125l0.578125 2.078125q0.046875 -0.15625 0.5 -2.0l1.546875 -5.65625l1.6875 0l1.4375 5.609375l0.484375 1.84375l0.5625 -1.859375l1.65625 -5.59375l1.59375 0l-3.03125 9.671875l-1.703125 0l-1.53125 -5.796875l-0.375 -1.640625l-1.953125 7.4375l-1.71875 0zm11.691711 -11.46875l0 -1.890625l1.640625 0l0 1.890625l-1.640625 0zm0 11.46875l0 -9.671875l1.640625 0l0 9.671875l-1.640625 0zm7.722931 -1.46875l0.234375 1.453125q-0.6875 0.140625 -1.234375 0.140625q-0.890625 0 -1.390625 -0.28125q-0.484375 -0.28125 -0.6875 -0.734375q-0.203125 -0.46875 -0.203125 -1.9375l0 -5.578125l-1.203125 0l0 -1.265625l1.203125 0l0 -2.390625l1.625 -0.984375l0 3.375l1.65625 0l0 1.265625l-1.65625 0l0 5.671875q0 0.6875 0.078125 0.890625q0.09375 0.203125 0.28125 0.328125q0.203125 0.109375 0.578125 0.109375q0.265625 0 0.71875 -0.0625zm1.6051941 1.46875l0 -13.359375l1.640625 0l0 4.796875q1.140625 -1.328125 2.890625 -1.328125q1.078125 0 1.859375 0.421875q0.796875 0.421875 1.140625 1.171875q0.34375 0.75 0.34375 2.171875l0 6.125l-1.640625 0l0 -6.125q0 -1.234375 -0.53125 -1.796875q-0.53125 -0.5625 -1.515625 -0.5625q-0.71875 0 -1.359375 0.390625q-0.640625 0.375 -0.921875 1.015625q-0.265625 0.640625 -0.265625 1.78125l0 5.296875l-1.640625 0zm19.137146 -1.46875l0.234375 1.453125q-0.6875 0.140625 -1.234375 0.140625q-0.890625 0 -1.390625 -0.28125q-0.484375 -0.28125 -0.6875 -0.734375q-0.203125 -0.46875 -0.203125 -1.9375l0 -5.578125l-1.203125 0l0 -1.265625l1.203125 0l0 -2.390625l1.625 -0.984375l0 3.375l1.65625 0l0 1.265625l-1.65625 0l0 5.671875q0 0.6875 0.078125 0.890625q0.09375 0.203125 0.28125 0.328125q0.203125 0.109375 0.578125 0.109375q0.265625 0 0.71875 -0.0625zm1.6051636 1.46875l0 -13.359375l1.640625 0l0 4.796875q1.140625 -1.328125 2.890625 -1.328125q1.078125 0 1.859375 0.421875q0.796875 0.421875 1.140625 1.171875q0.34375 0.75 0.34375 2.171875l0 6.125l-1.640625 0l0 -6.125q0 -1.234375 -0.53125 -1.796875q-0.53125 -0.5625 -1.515625 -0.5625q-0.71875 0 -1.359375 0.390625q-0.640625 0.375 -0.921875 1.015625q-0.265625 0.640625 -0.265625 1.78125l0 5.296875l-1.640625 0zm10.360107 0l0 -9.671875l1.46875 0l0 1.46875q0.5625 -1.03125 1.03125 -1.359375q0.484375 -0.328125 1.0625 -0.328125q0.828125 0 1.6875 0.53125l-0.5625 1.515625q-0.609375 -0.359375 -1.203125 -0.359375q-0.546875 0 -0.96875 0.328125q-0.421875 0.328125 -0.609375 0.890625q-0.28125 0.875 -0.28125 1.921875l0 5.0625l-1.625 0zm12.853302 -3.109375l1.6875 0.203125q-0.40625 1.484375 -1.484375 2.3125q-1.078125 0.8125 -2.765625 0.8125q-2.125 0 -3.375 -1.296875q-1.234375 -1.3125 -1.234375 -3.671875q0 -2.453125 1.25 -3.796875q1.265625 -1.34375 3.265625 -1.34375q1.9375 0 3.15625 1.328125q1.234375 1.3125 1.234375 3.703125q0 0.15625 0 0.4375l-7.21875 0q0.09375 1.59375 0.90625 2.453125q0.8125 0.84375 2.015625 0.84375q0.90625 0 1.546875 -0.46875q0.640625 -0.484375 1.015625 -1.515625zm-5.390625 -2.65625l5.40625 0q-0.109375 -1.21875 -0.625 -1.828125q-0.78125 -0.953125 -2.03125 -0.953125q-1.125 0 -1.90625 0.765625q-0.765625 0.75 -0.84375 2.015625zm8.485077 2.875l1.625 -0.25q0.125 0.96875 0.75 1.5q0.625 0.515625 1.75 0.515625q1.125 0 1.671875 -0.453125q0.546875 -0.46875 0.546875 -1.09375q0 -0.546875 -0.484375 -0.875q-0.328125 -0.21875 -1.671875 -0.546875q-1.8125 -0.46875 -2.515625 -0.796875q-0.6875 -0.328125 -1.046875 -0.90625q-0.359375 -0.59375 -0.359375 -1.3125q0 -0.640625 0.296875 -1.1875q0.296875 -0.5625 0.8125 -0.921875q0.375 -0.28125 1.03125 -0.46875q0.671875 -0.203125 1.421875 -0.203125q1.140625 0 2.0 0.328125q0.859375 0.328125 1.265625 0.890625q0.421875 0.5625 0.578125 1.5l-1.609375 0.21875q-0.109375 -0.75 -0.640625 -1.171875q-0.515625 -0.421875 -1.46875 -0.421875q-1.140625 0 -1.625 0.375q-0.46875 0.375 -0.46875 0.875q0 0.3125 0.1875 0.578125q0.203125 0.265625 0.640625 0.4375q0.234375 0.09375 1.4375 0.421875q1.75 0.453125 2.4375 0.75q0.6875 0.296875 1.078125 0.859375q0.390625 0.5625 0.390625 1.40625q0 0.828125 -0.484375 1.546875q-0.46875 0.71875 -1.375 1.125q-0.90625 0.390625 -2.046875 0.390625q-1.875 0 -2.875 -0.78125q-0.984375 -0.78125 -1.25 -2.328125zm9.984375 2.890625l0 -13.359375l1.640625 0l0 4.796875q1.140625 -1.328125 2.890625 -1.328125q1.078125 0 1.859375 0.421875q0.796875 0.421875 1.140625 1.171875q0.34375 0.75 0.34375 2.171875l0 6.125l-1.640625 0l0 -6.125q0 -1.234375 -0.53125 -1.796875q-0.53125 -0.5625 -1.515625 -0.5625q-0.71875 0 -1.359375 0.390625q-0.640625 0.375 -0.921875 1.015625q-0.265625 0.640625 -0.265625 1.78125l0 5.296875l-1.640625 0zm9.766357 -4.84375q0 -2.6875 1.484375 -3.96875q1.25 -1.078125 3.046875 -1.078125q2.0 0 3.265625 1.3125q1.265625 1.296875 1.265625 3.609375q0 1.859375 -0.5625 2.9375q-0.5625 1.0625 -1.640625 1.65625q-1.0625 0.59375 -2.328125 0.59375q-2.03125 0 -3.28125 -1.296875q-1.25 -1.3125 -1.25 -3.765625zm1.6875 0q0 1.859375 0.796875 2.796875q0.8125 0.921875 2.046875 0.921875q1.21875 0 2.03125 -0.921875q0.8125 -0.9375 0.8125 -2.84375q0 -1.796875 -0.8125 -2.71875q-0.8125 -0.921875 -2.03125 -0.921875q-1.234375 0 -2.046875 0.921875q-0.796875 0.90625 -0.796875 2.765625zm9.250702 4.84375l0 -13.359375l1.640625 0l0 13.359375l-1.640625 0zm10.457336 0l0 -1.21875q-0.90625 1.4375 -2.703125 1.4375q-1.15625 0 -2.125 -0.640625q-0.96875 -0.640625 -1.5 -1.78125q-0.53125 -1.140625 -0.53125 -2.625q0 -1.453125 0.484375 -2.625q0.484375 -1.1875 1.4375 -1.8125q0.96875 -0.625 2.171875 -0.625q0.875 0 1.546875 0.375q0.6875 0.359375 1.109375 0.953125l0 -4.796875l1.640625 0l0 13.359375l-1.53125 0zm-5.171875 -4.828125q0 1.859375 0.78125 2.78125q0.78125 0.921875 1.84375 0.921875q1.078125 0 1.828125 -0.875q0.75 -0.890625 0.75 -2.6875q0 -1.984375 -0.765625 -2.90625q-0.765625 -0.9375 -1.890625 -0.9375q-1.078125 0 -1.8125 0.890625q-0.734375 0.890625 -0.734375 2.8125zm14.418396 4.828125l0 -13.359375l1.640625 0l0 13.359375l-1.640625 0zm4.191681 -11.46875l0 -1.890625l1.640625 0l0 1.890625l-1.640625 0zm0 11.46875l0 -9.671875l1.640625 0l0 9.671875l-1.640625 0zm4.144806 0l0 -9.671875l1.46875 0l0 1.359375q0.453125 -0.71875 1.203125 -1.140625q0.765625 -0.4375 1.71875 -0.4375q1.078125 0 1.765625 0.453125q0.6875 0.4375 0.96875 1.234375q1.15625 -1.6875 2.984375 -1.6875q1.453125 0 2.21875 0.796875q0.78125 0.796875 0.78125 2.453125l0 6.640625l-1.640625 0l0 -6.09375q0 -0.984375 -0.15625 -1.40625q-0.15625 -0.4375 -0.578125 -0.703125q-0.421875 -0.265625 -0.984375 -0.265625q-1.015625 0 -1.6875 0.6875q-0.671875 0.671875 -0.671875 2.15625l0 5.625l-1.640625 0l0 -6.28125q0 -1.09375 -0.40625 -1.640625q-0.40625 -0.546875 -1.3125 -0.546875q-0.6875 0 -1.28125 0.359375q-0.59375 0.359375 -0.859375 1.0625q-0.25 0.703125 -0.25 2.03125l0 5.015625l-1.640625 0zm15.540802 -11.46875l0 -1.890625l1.640625 0l0 1.890625l-1.640625 0zm0 11.46875l0 -9.671875l1.640625 0l0 9.671875l-1.640625 0zm7.722931 -1.46875l0.234375 1.453125q-0.6875 0.140625 -1.234375 0.140625q-0.890625 0 -1.390625 -0.28125q-0.484375 -0.28125 -0.6875 -0.734375q-0.203125 -0.46875 -0.203125 -1.9375l0 -5.578125l-1.203125 0l0 -1.265625l1.203125 0l0 -2.390625l1.625 -0.984375l0 3.375l1.65625 0l0 1.265625l-1.65625 0l0 5.671875q0 0.6875 0.078125 0.890625q0.09375 0.203125 0.28125 0.328125q0.203125 0.109375 0.578125 0.109375q0.265625 0 0.71875 -0.0625z" fill-rule="nonzero"/><path fill="#000000" fill-opacity="0.0" d="m484.39108 222.73228l169.29135 0l0 42.01573l-169.29135 0z" fill-rule="evenodd"/><path fill="#000000" d="m494.85983 249.65228l0 -13.359375l5.921875 0q1.78125 0 2.703125 0.359375q0.9375 0.359375 1.484375 1.28125q0.5625 0.90625 0.5625 2.015625q0 1.40625 -0.921875 2.390625q-0.921875 0.96875 -2.84375 1.234375q0.703125 0.34375 1.078125 0.671875q0.765625 0.703125 1.453125 1.765625l2.328125 3.640625l-2.21875 0l-1.765625 -2.78125q-0.78125 -1.203125 -1.28125 -1.828125q-0.5 -0.640625 -0.90625 -0.890625q-0.390625 -0.265625 -0.796875 -0.359375q-0.296875 -0.078125 -0.984375 -0.078125l-2.046875 0l0 5.9375l-1.765625 0zm1.765625 -7.453125l3.796875 0q1.21875 0 1.890625 -0.25q0.6875 -0.265625 1.046875 -0.8125q0.359375 -0.546875 0.359375 -1.1875q0 -0.953125 -0.6875 -1.5625q-0.6875 -0.609375 -2.1875 -0.609375l-4.21875 0l0 4.421875zm18.09793 4.34375l1.6875 0.203125q-0.40625 1.484375 -1.484375 2.3125q-1.078125 0.8125 -2.765625 0.8125q-2.125 0 -3.375 -1.296875q-1.234375 -1.3125 -1.234375 -3.671875q0 -2.453125 1.25 -3.796875q1.265625 -1.34375 3.265625 -1.34375q1.9375 0 3.15625 1.328125q1.234375 1.3125 1.234375 3.703125q0 0.15625 0 0.4375l-7.21875 0q0.09375 1.59375 0.90625 2.453125q0.8125 0.84375 2.015625 0.84375q0.90625 0 1.546875 -0.46875q0.640625 -0.484375 1.015625 -1.515625zm-5.390625 -2.65625l5.40625 0q-0.109375 -1.21875 -0.625 -1.828125q-0.78125 -0.953125 -2.03125 -0.953125q-1.125 0 -1.90625 0.765625q-0.765625 0.75 -0.84375 2.015625zm15.297607 9.46875l0 -4.734375q-0.375 0.546875 -1.0625 0.90625q-0.6875 0.34375 -1.46875 0.34375q-1.71875 0 -2.96875 -1.375q-1.234375 -1.375 -1.234375 -3.765625q0 -1.46875 0.5 -2.625q0.515625 -1.15625 1.46875 -1.75q0.96875 -0.59375 2.109375 -0.59375q1.796875 0 2.828125 1.515625l0 -1.296875l1.46875 0l0 13.375l-1.640625 0zm-5.046875 -8.5625q0 1.859375 0.78125 2.796875q0.78125 0.9375 1.875 0.9375q1.046875 0 1.796875 -0.890625q0.765625 -0.890625 0.765625 -2.703125q0 -1.9375 -0.796875 -2.90625q-0.796875 -0.96875 -1.875 -0.96875q-1.0625 0 -1.8125 0.90625q-0.734375 0.90625 -0.734375 2.828125zm15.594482 4.859375l0 -1.421875q-1.125 1.640625 -3.0625 1.640625q-0.859375 0 -1.609375 -0.328125q-0.734375 -0.328125 -1.09375 -0.828125q-0.359375 -0.5 -0.5 -1.21875q-0.109375 -0.46875 -0.109375 -1.53125l0 -5.984375l1.640625 0l0 5.359375q0 1.28125 0.109375 1.734375q0.15625 0.640625 0.65625 1.015625q0.5 0.375 1.234375 0.375q0.734375 0 1.375 -0.375q0.65625 -0.390625 0.921875 -1.03125q0.265625 -0.65625 0.265625 -1.890625l0 -5.1875l1.640625 0l0 9.671875l-1.46875 0zm10.672546 -3.109375l1.6875 0.203125q-0.40625 1.484375 -1.484375 2.3125q-1.078125 0.8125 -2.765625 0.8125q-2.125 0 -3.375 -1.296875q-1.234375 -1.3125 -1.234375 -3.671875q0 -2.453125 1.25 -3.796875q1.265625 -1.34375 3.265625 -1.34375q1.9375 0 3.15625 1.328125q1.234375 1.3125 1.234375 3.703125q0 0.15625 0 0.4375l-7.21875 0q0.09375 1.59375 0.90625 2.453125q0.8125 0.84375 2.015625 0.84375q0.90625 0 1.546875 -0.46875q0.640625 -0.484375 1.015625 -1.515625zm-5.390625 -2.65625l5.40625 0q-0.109375 -1.21875 -0.625 -1.828125q-0.78125 -0.953125 -2.03125 -0.953125q-1.125 0 -1.90625 0.765625q-0.765625 0.75 -0.84375 2.015625zm8.485107 2.875l1.625 -0.25q0.125 0.96875 0.75 1.5q0.625 0.515625 1.75 0.515625q1.125 0 1.671875 -0.453125q0.546875 -0.46875 0.546875 -1.09375q0 -0.546875 -0.484375 -0.875q-0.328125 -0.21875 -1.671875 -0.546875q-1.8125 -0.46875 -2.515625 -0.796875q-0.6875 -0.328125 -1.046875 -0.90625q-0.359375 -0.59375 -0.359375 -1.3125q0 -0.640625 0.296875 -1.1875q0.296875 -0.5625 0.8125 -0.921875q0.375 -0.28125 1.03125 -0.46875q0.671875 -0.203125 1.421875 -0.203125q1.140625 0 2.0 0.328125q0.859375 0.328125 1.265625 0.890625q0.421875 0.5625 0.578125 1.5l-1.609375 0.21875q-0.109375 -0.75 -0.640625 -1.171875q-0.515625 -0.421875 -1.46875 -0.421875q-1.140625 0 -1.625 0.375q-0.46875 0.375 -0.46875 0.875q0 0.3125 0.1875 0.578125q0.203125 0.265625 0.640625 0.4375q0.234375 0.09375 1.4375 0.421875q1.75 0.453125 2.4375 0.75q0.6875 0.296875 1.078125 0.859375q0.390625 0.5625 0.390625 1.40625q0 0.828125 -0.484375 1.546875q-0.46875 0.71875 -1.375 1.125q-0.90625 0.390625 -2.046875 0.390625q-1.875 0 -2.875 -0.78125q-0.984375 -0.78125 -1.25 -2.328125zm13.5625 1.421875l0.234375 1.453125q-0.6875 0.140625 -1.234375 0.140625q-0.890625 0 -1.390625 -0.28125q-0.484375 -0.28125 -0.6875 -0.734375q-0.203125 -0.46875 -0.203125 -1.9375l0 -5.578125l-1.203125 0l0 -1.265625l1.203125 0l0 -2.390625l1.625 -0.984375l0 3.375l1.65625 0l0 1.265625l-1.65625 0l0 5.671875q0 0.6875 0.078125 0.890625q0.09375 0.203125 0.28125 0.328125q0.203125 0.109375 0.578125 0.109375q0.265625 0 0.71875 -0.0625zm0.9489136 -1.421875l1.625 -0.25q0.125 0.96875 0.75 1.5q0.625 0.515625 1.75 0.515625q1.125 0 1.671875 -0.453125q0.546875 -0.46875 0.546875 -1.09375q0 -0.546875 -0.484375 -0.875q-0.328125 -0.21875 -1.671875 -0.546875q-1.8125 -0.46875 -2.515625 -0.796875q-0.6875 -0.328125 -1.046875 -0.90625q-0.359375 -0.59375 -0.359375 -1.3125q0 -0.640625 0.296875 -1.1875q0.296875 -0.5625 0.8125 -0.921875q0.375 -0.28125 1.03125 -0.46875q0.671875 -0.203125 1.421875 -0.203125q1.140625 0 2.0 0.328125q0.859375 0.328125 1.265625 0.890625q0.421875 0.5625 0.578125 1.5l-1.609375 0.21875q-0.109375 -0.75 -0.640625 -1.171875q-0.515625 -0.421875 -1.46875 -0.421875q-1.140625 0 -1.625 0.375q-0.46875 0.375 -0.46875 0.875q0 0.3125 0.1875 0.578125q0.203125 0.265625 0.640625 0.4375q0.234375 0.09375 1.4375 0.421875q1.75 0.453125 2.4375 0.75q0.6875 0.296875 1.078125 0.859375q0.390625 0.5625 0.390625 1.40625q0 0.828125 -0.484375 1.546875q-0.46875 0.71875 -1.375 1.125q-0.90625 0.390625 -2.046875 0.390625q-1.875 0 -2.875 -0.78125q-0.984375 -0.78125 -1.25 -2.328125zm15.55835 2.890625l0 -8.40625l-1.453125 0l0 -1.265625l1.453125 0l0 -1.03125q0 -0.96875 0.171875 -1.453125q0.234375 -0.640625 0.828125 -1.03125q0.59375 -0.390625 1.671875 -0.390625q0.6875 0 1.53125 0.15625l-0.25 1.4375q-0.5 -0.09375 -0.953125 -0.09375q-0.75 0 -1.0625 0.328125q-0.3125 0.3125 -0.3125 1.1875l0 0.890625l1.890625 0l0 1.265625l-1.890625 0l0 8.40625l-1.625 0zm11.105164 -1.1875q-0.921875 0.765625 -1.765625 1.09375q-0.828125 0.3125 -1.796875 0.3125q-1.59375 0 -2.453125 -0.78125q-0.859375 -0.78125 -0.859375 -1.984375q0 -0.71875 0.328125 -1.296875q0.328125 -0.59375 0.84375 -0.9375q0.53125 -0.359375 1.1875 -0.546875q0.46875 -0.125 1.453125 -0.25q1.984375 -0.234375 2.921875 -0.5625q0.015625 -0.34375 0.015625 -0.421875q0 -1.0 -0.46875 -1.421875q-0.625 -0.546875 -1.875 -0.546875q-1.15625 0 -1.703125 0.40625q-0.546875 0.40625 -0.8125 1.421875l-1.609375 -0.21875q0.21875 -1.015625 0.71875 -1.640625q0.5 -0.640625 1.453125 -0.984375q0.953125 -0.34375 2.1875 -0.34375q1.25 0 2.015625 0.296875q0.78125 0.28125 1.140625 0.734375q0.375 0.4375 0.515625 1.109375q0.078125 0.421875 0.078125 1.515625l0 2.1875q0 2.28125 0.109375 2.890625q0.109375 0.59375 0.40625 1.15625l-1.703125 0q-0.265625 -0.515625 -0.328125 -1.1875zm-0.140625 -3.671875q-0.890625 0.375 -2.671875 0.625q-1.015625 0.140625 -1.4375 0.328125q-0.421875 0.1875 -0.65625 0.53125q-0.21875 0.34375 -0.21875 0.78125q0 0.65625 0.5 1.09375q0.5 0.4375 1.453125 0.4375q0.9375 0 1.671875 -0.40625q0.75 -0.421875 1.09375 -1.140625q0.265625 -0.5625 0.265625 -1.640625l0 -0.609375zm4.2038574 -6.609375l0 -1.890625l1.640625 0l0 1.890625l-1.640625 0zm0 11.46875l0 -9.671875l1.640625 0l0 9.671875l-1.640625 0zm4.0979004 0l0 -13.359375l1.640625 0l0 13.359375l-1.640625 0zm10.816711 -3.109375l1.6875 0.203125q-0.40625 1.484375 -1.484375 2.3125q-1.078125 0.8125 -2.765625 0.8125q-2.125 0 -3.375 -1.296875q-1.234375 -1.3125 -1.234375 -3.671875q0 -2.453125 1.25 -3.796875q1.265625 -1.34375 3.265625 -1.34375q1.9375 0 3.15625 1.328125q1.234375 1.3125 1.234375 3.703125q0 0.15625 0 0.4375l-7.21875 0q0.09375 1.59375 0.90625 2.453125q0.8125 0.84375 2.015625 0.84375q0.90625 0 1.546875 -0.46875q0.640625 -0.484375 1.015625 -1.515625zm-5.390625 -2.65625l5.40625 0q-0.109375 -1.21875 -0.625 -1.828125q-0.78125 -0.953125 -2.03125 -0.953125q-1.125 0 -1.90625 0.765625q-0.765625 0.75 -0.84375 2.015625zm15.406982 5.765625l0 -1.21875q-0.90625 1.4375 -2.703125 1.4375q-1.15625 0 -2.125 -0.640625q-0.96875 -0.640625 -1.5 -1.78125q-0.53125 -1.140625 -0.53125 -2.625q0 -1.453125 0.484375 -2.625q0.484375 -1.1875 1.4375 -1.8125q0.96875 -0.625 2.171875 -0.625q0.875 0 1.546875 0.375q0.6875 0.359375 1.109375 0.953125l0 -4.796875l1.640625 0l0 13.359375l-1.53125 0zm-5.171875 -4.828125q0 1.859375 0.78125 2.78125q0.78125 0.921875 1.84375 0.921875q1.078125 0 1.828125 -0.875q0.75 -0.890625 0.75 -2.6875q0 -1.984375 -0.765625 -2.90625q-0.765625 -0.9375 -1.890625 -0.9375q-1.078125 0 -1.8125 0.890625q-0.734375 0.890625 -0.734375 2.8125z" fill-rule="nonzero"/><path fill="#000000" fill-opacity="0.0" d="m697.23096 227.98425l169.29138 0l0 64.62991l-169.29138 0z" fill-rule="evenodd"/><path fill="#000000" d="m717.1997 250.21675l1.765625 0.453125q-0.5625 2.171875 -2.0 3.328125q-1.4375 1.140625 -3.53125 1.140625q-2.15625 0 -3.515625 -0.875q-1.34375 -0.890625 -2.0625 -2.546875q-0.703125 -1.671875 -0.703125 -3.59375q0 -2.078125 0.796875 -3.625q0.796875 -1.5625 2.265625 -2.359375q1.484375 -0.8125 3.25 -0.8125q2.0 0 3.359375 1.015625q1.375 1.015625 1.90625 2.875l-1.734375 0.40625q-0.46875 -1.453125 -1.359375 -2.109375q-0.875 -0.671875 -2.203125 -0.671875q-1.546875 0 -2.578125 0.734375q-1.03125 0.734375 -1.453125 1.984375q-0.421875 1.234375 -0.421875 2.5625q0 1.703125 0.5 2.96875q0.5 1.265625 1.546875 1.90625q1.046875 0.625 2.265625 0.625q1.484375 0 2.515625 -0.859375q1.03125 -0.859375 1.390625 -2.546875zm3.1292114 -0.15625q0 -2.6875 1.484375 -3.96875q1.25 -1.078125 3.046875 -1.078125q2.0 0 3.265625 1.3125q1.265625 1.296875 1.265625 3.609375q0 1.859375 -0.5625 2.9375q-0.5625 1.0625 -1.640625 1.65625q-1.0625 0.59375 -2.328125 0.59375q-2.03125 0 -3.28125 -1.296875q-1.25 -1.3125 -1.25 -3.765625zm1.6875 0q0 1.859375 0.796875 2.796875q0.8125 0.921875 2.046875 0.921875q1.21875 0 2.03125 -0.921875q0.8125 -0.9375 0.8125 -2.84375q0 -1.796875 -0.8125 -2.71875q-0.8125 -0.921875 -2.03125 -0.921875q-1.234375 0 -2.046875 0.921875q-0.796875 0.90625 -0.796875 2.765625zm15.625732 4.84375l0 -1.421875q-1.125 1.640625 -3.0625 1.640625q-0.859375 0 -1.609375 -0.328125q-0.734375 -0.328125 -1.09375 -0.828125q-0.359375 -0.5 -0.5 -1.21875q-0.109375 -0.46875 -0.109375 -1.53125l0 -5.984375l1.640625 0l0 5.359375q0 1.28125 0.109375 1.734375q0.15625 0.640625 0.65625 1.015625q0.5 0.375 1.234375 0.375q0.734375 0 1.375 -0.375q0.65625 -0.390625 0.921875 -1.03125q0.265625 -0.65625 0.265625 -1.890625l0 -5.1875l1.640625 0l0 9.671875l-1.46875 0zm4.0475464 0l0 -9.671875l1.46875 0l0 1.375q1.0625 -1.59375 3.078125 -1.59375q0.875 0 1.609375 0.3125q0.734375 0.3125 1.09375 0.828125q0.375 0.5 0.515625 1.203125q0.09375 0.453125 0.09375 1.59375l0 5.953125l-1.640625 0l0 -5.890625q0 -1.0 -0.203125 -1.484375q-0.1875 -0.5 -0.671875 -0.796875q-0.484375 -0.296875 -1.140625 -0.296875q-1.046875 0 -1.8125 0.671875q-0.75 0.65625 -0.75 2.515625l0 5.28125l-1.640625 0zm13.953857 -1.46875l0.234375 1.453125q-0.6875 0.140625 -1.234375 0.140625q-0.890625 0 -1.390625 -0.28125q-0.484375 -0.28125 -0.6875 -0.734375q-0.203125 -0.46875 -0.203125 -1.9375l0 -5.578125l-1.203125 0l0 -1.265625l1.203125 0l0 -2.390625l1.625 -0.984375l0 3.375l1.65625 0l0 1.265625l-1.65625 0l0 5.671875q0 0.6875 0.078125 0.890625q0.09375 0.203125 0.28125 0.328125q0.203125 0.109375 0.578125 0.109375q0.265625 0 0.71875 -0.0625zm8.230164 -1.640625l1.6875 0.203125q-0.40625 1.484375 -1.484375 2.3125q-1.078125 0.8125 -2.765625 0.8125q-2.125 0 -3.375 -1.296875q-1.234375 -1.3125 -1.234375 -3.671875q0 -2.453125 1.25 -3.796875q1.265625 -1.34375 3.265625 -1.34375q1.9375 0 3.15625 1.328125q1.234375 1.3125 1.234375 3.703125q0 0.15625 0 0.4375l-7.21875 0q0.09375 1.59375 0.90625 2.453125q0.8125 0.84375 2.015625 0.84375q0.90625 0 1.546875 -0.46875q0.640625 -0.484375 1.015625 -1.515625zm-5.390625 -2.65625l5.40625 0q-0.109375 -1.21875 -0.625 -1.828125q-0.78125 -0.953125 -2.03125 -0.953125q-1.125 0 -1.90625 0.765625q-0.765625 0.75 -0.84375 2.015625zm9.125732 5.765625l0 -9.671875l1.46875 0l0 1.46875q0.5625 -1.03125 1.03125 -1.359375q0.484375 -0.328125 1.0625 -0.328125q0.828125 0 1.6875 0.53125l-0.5625 1.515625q-0.609375 -0.359375 -1.203125 -0.359375q-0.546875 0 -0.96875 0.328125q-0.421875 0.328125 -0.609375 0.890625q-0.28125 0.875 -0.28125 1.921875l0 5.0625l-1.625 0zm11.395996 0l0 -9.671875l1.46875 0l0 1.46875q0.5625 -1.03125 1.03125 -1.359375q0.484375 -0.328125 1.0625 -0.328125q0.828125 0 1.6875 0.53125l-0.5625 1.515625q-0.609375 -0.359375 -1.203125 -0.359375q-0.546875 0 -0.96875 0.328125q-0.421875 0.328125 -0.609375 0.890625q-0.28125 0.875 -0.28125 1.921875l0 5.0625l-1.625 0zm12.8532715 -3.109375l1.6875 0.203125q-0.40625 1.484375 -1.484375 2.3125q-1.078125 0.8125 -2.765625 0.8125q-2.125 0 -3.375 -1.296875q-1.234375 -1.3125 -1.234375 -3.671875q0 -2.453125 1.25 -3.796875q1.265625 -1.34375 3.265625 -1.34375q1.9375 0 3.15625 1.328125q1.234375 1.3125 1.234375 3.703125q0 0.15625 0 0.4375l-7.21875 0q0.09375 1.59375 0.90625 2.453125q0.8125 0.84375 2.015625 0.84375q0.90625 0 1.546875 -0.46875q0.640625 -0.484375 1.015625 -1.515625zm-5.390625 -2.65625l5.40625 0q-0.109375 -1.21875 -0.625 -1.828125q-0.78125 -0.953125 -2.03125 -0.953125q-1.125 0 -1.90625 0.765625q-0.765625 0.75 -0.84375 2.015625zm8.485107 2.875l1.625 -0.25q0.125 0.96875 0.75 1.5q0.625 0.515625 1.75 0.515625q1.125 0 1.671875 -0.453125q0.546875 -0.46875 0.546875 -1.09375q0 -0.546875 -0.484375 -0.875q-0.328125 -0.21875 -1.671875 -0.546875q-1.8125 -0.46875 -2.515625 -0.796875q-0.6875 -0.328125 -1.046875 -0.90625q-0.359375 -0.59375 -0.359375 -1.3125q0 -0.640625 0.296875 -1.1875q0.296875 -0.5625 0.8125 -0.921875q0.375 -0.28125 1.03125 -0.46875q0.671875 -0.203125 1.421875 -0.203125q1.140625 0 2.0 0.328125q0.859375 0.328125 1.265625 0.890625q0.421875 0.5625 0.578125 1.5l-1.609375 0.21875q-0.109375 -0.75 -0.640625 -1.171875q-0.515625 -0.421875 -1.46875 -0.421875q-1.140625 0 -1.625 0.375q-0.46875 0.375 -0.46875 0.875q0 0.3125 0.1875 0.578125q0.203125 0.265625 0.640625 0.4375q0.234375 0.09375 1.4375 0.421875q1.75 0.453125 2.4375 0.75q0.6875 0.296875 1.078125 0.859375q0.390625 0.5625 0.390625 1.40625q0 0.828125 -0.484375 1.546875q-0.46875 0.71875 -1.375 1.125q-0.90625 0.390625 -2.046875 0.390625q-1.875 0 -2.875 -0.78125q-0.984375 -0.78125 -1.25 -2.328125zm16.609375 -0.21875l1.6875 0.203125q-0.40625 1.484375 -1.484375 2.3125q-1.078125 0.8125 -2.765625 0.8125q-2.125 0 -3.375 -1.296875q-1.234375 -1.3125 -1.234375 -3.671875q0 -2.453125 1.25 -3.796875q1.265625 -1.34375 3.265625 -1.34375q1.9375 0 3.15625 1.328125q1.234375 1.3125 1.234375 3.703125q0 0.15625 0 0.4375l-7.21875 0q0.09375 1.59375 0.90625 2.453125q0.8125 0.84375 2.015625 0.84375q0.90625 0 1.546875 -0.46875q0.640625 -0.484375 1.015625 -1.515625zm-5.390625 -2.65625l5.40625 0q-0.109375 -1.21875 -0.625 -1.828125q-0.78125 -0.953125 -2.03125 -0.953125q-1.125 0 -1.90625 0.765625q-0.765625 0.75 -0.84375 2.015625zm12.719482 4.296875l0.234375 1.453125q-0.6875 0.140625 -1.234375 0.140625q-0.890625 0 -1.390625 -0.28125q-0.484375 -0.28125 -0.6875 -0.734375q-0.203125 -0.46875 -0.203125 -1.9375l0 -5.578125l-1.203125 0l0 -1.265625l1.203125 0l0 -2.390625l1.625 -0.984375l0 3.375l1.65625 0l0 1.265625l-1.65625 0l0 5.671875q0 0.6875 0.078125 0.890625q0.09375 0.203125 0.28125 0.328125q0.203125 0.109375 0.578125 0.109375q0.265625 0 0.71875 -0.0625z" fill-rule="nonzero"/><path fill="#000000" d="m711.04346 275.8355l0.234375 1.453125q-0.6875 0.140625 -1.234375 0.140625q-0.890625 0 -1.390625 -0.28125q-0.484375 -0.28125 -0.6875 -0.734375q-0.203125 -0.46875 -0.203125 -1.9375l0 -5.578125l-1.203125 0l0 -1.265625l1.203125 0l0 -2.390625l1.625 -0.984375l0 3.375l1.65625 0l0 1.265625l-1.65625 0l0 5.671875q0 0.6875 0.078125 0.890625q0.09375 0.203125 0.28125 0.328125q0.203125 0.109375 0.578125 0.109375q0.265625 0 0.71875 -0.0625zm1.6051636 -10.0l0 -1.890625l1.640625 0l0 1.890625l-1.640625 0zm0 11.46875l0 -9.671875l1.640625 0l0 9.671875l-1.640625 0zm4.1448364 0l0 -9.671875l1.46875 0l0 1.359375q0.453125 -0.71875 1.203125 -1.140625q0.765625 -0.4375 1.71875 -0.4375q1.078125 0 1.765625 0.453125q0.6875 0.4375 0.96875 1.234375q1.15625 -1.6875 2.984375 -1.6875q1.453125 0 2.21875 0.796875q0.78125 0.796875 0.78125 2.453125l0 6.640625l-1.640625 0l0 -6.09375q0 -0.984375 -0.15625 -1.40625q-0.15625 -0.4375 -0.578125 -0.703125q-0.421875 -0.265625 -0.984375 -0.265625q-1.015625 0 -1.6875 0.6875q-0.671875 0.671875 -0.671875 2.15625l0 5.625l-1.640625 0l0 -6.28125q0 -1.09375 -0.40625 -1.640625q-0.40625 -0.546875 -1.3125 -0.546875q-0.6875 0 -1.28125 0.359375q-0.59375 0.359375 -0.859375 1.0625q-0.25 0.703125 -0.25 2.03125l0 5.015625l-1.640625 0zm22.165833 -3.109375l1.6875 0.203125q-0.40625 1.484375 -1.484375 2.3125q-1.078125 0.8125 -2.765625 0.8125q-2.125 0 -3.375 -1.296875q-1.234375 -1.3125 -1.234375 -3.671875q0 -2.453125 1.25 -3.796875q1.265625 -1.34375 3.265625 -1.34375q1.9375 0 3.15625 1.328125q1.234375 1.3125 1.234375 3.703125q0 0.15625 0 0.4375l-7.21875 0q0.09375 1.59375 0.90625 2.453125q0.8125 0.84375 2.015625 0.84375q0.90625 0 1.546875 -0.46875q0.640625 -0.484375 1.015625 -1.515625zm-5.390625 -2.65625l5.40625 0q-0.109375 -1.21875 -0.625 -1.828125q-0.78125 -0.953125 -2.03125 -0.953125q-1.125 0 -1.90625 0.765625q-0.765625 0.75 -0.84375 2.015625zm8.531921 0.921875q0 -2.6875 1.484375 -3.96875q1.25 -1.078125 3.046875 -1.078125q2.0 0 3.265625 1.3125q1.265625 1.296875 1.265625 3.609375q0 1.859375 -0.5625 2.9375q-0.5625 1.0625 -1.640625 1.65625q-1.0625 0.59375 -2.328125 0.59375q-2.03125 0 -3.28125 -1.296875q-1.25 -1.3125 -1.25 -3.765625zm1.6875 0q0 1.859375 0.796875 2.796875q0.8125 0.921875 2.046875 0.921875q1.21875 0 2.03125 -0.921875q0.8125 -0.9375 0.8125 -2.84375q0 -1.796875 -0.8125 -2.71875q-0.8125 -0.921875 -2.03125 -0.921875q-1.234375 0 -2.046875 0.921875q-0.796875 0.90625 -0.796875 2.765625zm15.625732 4.84375l0 -1.421875q-1.125 1.640625 -3.0625 1.640625q-0.859375 0 -1.609375 -0.328125q-0.734375 -0.328125 -1.09375 -0.828125q-0.359375 -0.5 -0.5 -1.21875q-0.109375 -0.46875 -0.109375 -1.53125l0 -5.984375l1.640625 0l0 5.359375q0 1.28125 0.109375 1.734375q0.15625 0.640625 0.65625 1.015625q0.5 0.375 1.234375 0.375q0.734375 0 1.375 -0.375q0.65625 -0.390625 0.921875 -1.03125q0.265625 -0.65625 0.265625 -1.890625l0 -5.1875l1.640625 0l0 9.671875l-1.46875 0zm7.6257324 -1.46875l0.234375 1.453125q-0.6875 0.140625 -1.234375 0.140625q-0.890625 0 -1.390625 -0.28125q-0.484375 -0.28125 -0.6875 -0.734375q-0.203125 -0.46875 -0.203125 -1.9375l0 -5.578125l-1.203125 0l0 -1.265625l1.203125 0l0 -2.390625l1.625 -0.984375l0 3.375l1.65625 0l0 1.265625l-1.65625 0l0 5.671875q0 0.6875 0.078125 0.890625q0.09375 0.203125 0.28125 0.328125q0.203125 0.109375 0.578125 0.109375q0.265625 0 0.71875 -0.0625z" fill-rule="nonzero"/><path fill="#000000" fill-opacity="0.0" d="m354.3701 379.7848l169.29135 0l0 87.27557l-169.29135 0z" fill-rule="evenodd"/><path fill="#000000" d="m364.83884 406.70477l0 -13.359375l5.921875 0q1.78125 0 2.703125 0.359375q0.9375 0.359375 1.484375 1.28125q0.5625 0.90625 0.5625 2.015625q0 1.40625 -0.921875 2.390625q-0.921875 0.96875 -2.84375 1.234375q0.703125 0.34375 1.078125 0.671875q0.765625 0.703125 1.453125 1.765625l2.328125 3.640625l-2.21875 0l-1.765625 -2.78125q-0.78125 -1.203125 -1.28125 -1.828125q-0.5 -0.640625 -0.90625 -0.890625q-0.390625 -0.265625 -0.796875 -0.359375q-0.296875 -0.078125 -0.984375 -0.078125l-2.046875 0l0 5.9375l-1.765625 0zm1.765625 -7.453125l3.796875 0q1.21875 0 1.890625 -0.25q0.6875 -0.265625 1.046875 -0.8125q0.359375 -0.546875 0.359375 -1.1875q0 -0.953125 -0.6875 -1.5625q-0.6875 -0.609375 -2.1875 -0.609375l-4.21875 0l0 4.421875zm18.09793 4.34375l1.6875 0.203125q-0.40625 1.484375 -1.484375 2.3125q-1.078125 0.8125 -2.765625 0.8125q-2.125 0 -3.375 -1.296875q-1.234375 -1.3125 -1.234375 -3.671875q0 -2.453125 1.25 -3.796875q1.265625 -1.34375 3.265625 -1.34375q1.9375 0 3.15625 1.328125q1.234375 1.3125 1.234375 3.703125q0 0.15625 0 0.4375l-7.21875 0q0.09375 1.59375 0.90625 2.453125q0.8125 0.84375 2.015625 0.84375q0.90625 0 1.546875 -0.46875q0.640625 -0.484375 1.015625 -1.515625zm-5.390625 -2.65625l5.40625 0q-0.109375 -1.21875 -0.625 -1.828125q-0.78125 -0.953125 -2.03125 -0.953125q-1.125 0 -1.90625 0.765625q-0.765625 0.75 -0.84375 2.015625zm15.297607 9.46875l0 -4.734375q-0.375 0.546875 -1.0625 0.90625q-0.6875 0.34375 -1.46875 0.34375q-1.71875 0 -2.96875 -1.375q-1.234375 -1.375 -1.234375 -3.765625q0 -1.46875 0.5 -2.625q0.515625 -1.15625 1.46875 -1.75q0.96875 -0.59375 2.109375 -0.59375q1.796875 0 2.828125 1.515625l0 -1.296875l1.46875 0l0 13.375l-1.640625 0zm-5.046875 -8.5625q0 1.859375 0.78125 2.796875q0.78125 0.9375 1.875 0.9375q1.046875 0 1.796875 -0.890625q0.765625 -0.890625 0.765625 -2.703125q0 -1.9375 -0.796875 -2.90625q-0.796875 -0.96875 -1.875 -0.96875q-1.0625 0 -1.8125 0.90625q-0.734375 0.90625 -0.734375 2.828125zm15.594452 4.859375l0 -1.421875q-1.125 1.640625 -3.0625 1.640625q-0.859375 0 -1.609375 -0.328125q-0.734375 -0.328125 -1.09375 -0.828125q-0.359375 -0.5 -0.5 -1.21875q-0.109375 -0.46875 -0.109375 -1.53125l0 -5.984375l1.640625 0l0 5.359375q0 1.28125 0.109375 1.734375q0.15625 0.640625 0.65625 1.015625q0.5 0.375 1.234375 0.375q0.734375 0 1.375 -0.375q0.65625 -0.390625 0.921875 -1.03125q0.265625 -0.65625 0.265625 -1.890625l0 -5.1875l1.640625 0l0 9.671875l-1.46875 0zm10.672607 -3.109375l1.6875 0.203125q-0.40625 1.484375 -1.484375 2.3125q-1.078125 0.8125 -2.765625 0.8125q-2.125 0 -3.375 -1.296875q-1.234375 -1.3125 -1.234375 -3.671875q0 -2.453125 1.25 -3.796875q1.265625 -1.34375 3.265625 -1.34375q1.9375 0 3.15625 1.328125q1.234375 1.3125 1.234375 3.703125q0 0.15625 0 0.4375l-7.21875 0q0.09375 1.59375 0.90625 2.453125q0.8125 0.84375 2.015625 0.84375q0.90625 0 1.546875 -0.46875q0.640625 -0.484375 1.015625 -1.515625zm-5.390625 -2.65625l5.40625 0q-0.109375 -1.21875 -0.625 -1.828125q-0.78125 -0.953125 -2.03125 -0.953125q-1.125 0 -1.90625 0.765625q-0.765625 0.75 -0.84375 2.015625zm8.485077 2.875l1.625 -0.25q0.125 0.96875 0.75 1.5q0.625 0.515625 1.75 0.515625q1.125 0 1.671875 -0.453125q0.546875 -0.46875 0.546875 -1.09375q0 -0.546875 -0.484375 -0.875q-0.328125 -0.21875 -1.671875 -0.546875q-1.8125 -0.46875 -2.515625 -0.796875q-0.6875 -0.328125 -1.046875 -0.90625q-0.359375 -0.59375 -0.359375 -1.3125q0 -0.640625 0.296875 -1.1875q0.296875 -0.5625 0.8125 -0.921875q0.375 -0.28125 1.03125 -0.46875q0.671875 -0.203125 1.421875 -0.203125q1.140625 0 2.0 0.328125q0.859375 0.328125 1.265625 0.890625q0.421875 0.5625 0.578125 1.5l-1.609375 0.21875q-0.109375 -0.75 -0.640625 -1.171875q-0.515625 -0.421875 -1.46875 -0.421875q-1.140625 0 -1.625 0.375q-0.46875 0.375 -0.46875 0.875q0 0.3125 0.1875 0.578125q0.203125 0.265625 0.640625 0.4375q0.234375 0.09375 1.4375 0.421875q1.75 0.453125 2.4375 0.75q0.6875 0.296875 1.078125 0.859375q0.390625 0.5625 0.390625 1.40625q0 0.828125 -0.484375 1.546875q-0.46875 0.71875 -1.375 1.125q-0.90625 0.390625 -2.046875 0.390625q-1.875 0 -2.875 -0.78125q-0.984375 -0.78125 -1.25 -2.328125zm13.5625 1.421875l0.234375 1.453125q-0.6875 0.140625 -1.234375 0.140625q-0.890625 0 -1.390625 -0.28125q-0.484375 -0.28125 -0.6875 -0.734375q-0.203125 -0.46875 -0.203125 -1.9375l0 -5.578125l-1.203125 0l0 -1.265625l1.203125 0l0 -2.390625l1.625 -0.984375l0 3.375l1.65625 0l0 1.265625l-1.65625 0l0 5.671875q0 0.6875 0.078125 0.890625q0.09375 0.203125 0.28125 0.328125q0.203125 0.109375 0.578125 0.109375q0.265625 0 0.71875 -0.0625zm0.9489441 -1.421875l1.625 -0.25q0.125 0.96875 0.75 1.5q0.625 0.515625 1.75 0.515625q1.125 0 1.671875 -0.453125q0.546875 -0.46875 0.546875 -1.09375q0 -0.546875 -0.484375 -0.875q-0.328125 -0.21875 -1.671875 -0.546875q-1.8125 -0.46875 -2.515625 -0.796875q-0.6875 -0.328125 -1.046875 -0.90625q-0.359375 -0.59375 -0.359375 -1.3125q0 -0.640625 0.296875 -1.1875q0.296875 -0.5625 0.8125 -0.921875q0.375 -0.28125 1.03125 -0.46875q0.671875 -0.203125 1.421875 -0.203125q1.140625 0 2.0 0.328125q0.859375 0.328125 1.265625 0.890625q0.421875 0.5625 0.578125 1.5l-1.609375 0.21875q-0.109375 -0.75 -0.640625 -1.171875q-0.515625 -0.421875 -1.46875 -0.421875q-1.140625 0 -1.625 0.375q-0.46875 0.375 -0.46875 0.875q0 0.3125 0.1875 0.578125q0.203125 0.265625 0.640625 0.4375q0.234375 0.09375 1.4375 0.421875q1.75 0.453125 2.4375 0.75q0.6875 0.296875 1.078125 0.859375q0.390625 0.5625 0.390625 1.40625q0 0.828125 -0.484375 1.546875q-0.46875 0.71875 -1.375 1.125q-0.90625 0.390625 -2.046875 0.390625q-1.875 0 -2.875 -0.78125q-0.984375 -0.78125 -1.25 -2.328125z" fill-rule="nonzero"/><path fill="#000000" d="m363.9482 426.21414l1.625 -0.25q0.125 0.96875 0.75 1.5q0.625 0.515625 1.75 0.515625q1.125 0 1.671875 -0.453125q0.546875 -0.46875 0.546875 -1.09375q0 -0.546875 -0.484375 -0.875q-0.328125 -0.21875 -1.671875 -0.546875q-1.8125 -0.46875 -2.515625 -0.796875q-0.6875 -0.328125 -1.046875 -0.90625q-0.359375 -0.59375 -0.359375 -1.3125q0 -0.640625 0.296875 -1.1875q0.296875 -0.5625 0.8125 -0.921875q0.375 -0.28125 1.03125 -0.46875q0.671875 -0.203125 1.421875 -0.203125q1.140625 0 2.0 0.328125q0.859375 0.328125 1.265625 0.890625q0.421875 0.5625 0.578125 1.5l-1.609375 0.21875q-0.109375 -0.75 -0.640625 -1.171875q-0.515625 -0.421875 -1.46875 -0.421875q-1.140625 0 -1.625 0.375q-0.46875 0.375 -0.46875 0.875q0 0.3125 0.1875 0.578125q0.203125 0.265625 0.640625 0.4375q0.234375 0.09375 1.4375 0.421875q1.75 0.453125 2.4375 0.75q0.6875 0.296875 1.078125 0.859375q0.390625 0.5625 0.390625 1.40625q0 0.828125 -0.484375 1.546875q-0.46875 0.71875 -1.375 1.125q-0.90625 0.390625 -2.046875 0.390625q-1.875 0 -2.875 -0.78125q-0.984375 -0.78125 -1.25 -2.328125zm16.3125 2.890625l0 -1.421875q-1.125 1.640625 -3.0625 1.640625q-0.859375 0 -1.609375 -0.328125q-0.734375 -0.328125 -1.09375 -0.828125q-0.359375 -0.5 -0.5 -1.21875q-0.109375 -0.46875 -0.109375 -1.53125l0 -5.984375l1.640625 0l0 5.359375q0 1.28125 0.109375 1.734375q0.15625 0.640625 0.65625 1.015625q0.5 0.375 1.234375 0.375q0.734375 0 1.375 -0.375q0.65625 -0.390625 0.921875 -1.03125q0.265625 -0.65625 0.265625 -1.890625l0 -5.1875l1.640625 0l0 9.671875l-1.46875 0zm10.360077 -3.546875l1.609375 0.21875q-0.265625 1.65625 -1.359375 2.609375q-1.078125 0.9375 -2.671875 0.9375q-1.984375 0 -3.1875 -1.296875q-1.203125 -1.296875 -1.203125 -3.71875q0 -1.578125 0.515625 -2.75q0.515625 -1.171875 1.578125 -1.75q1.0625 -0.59375 2.3125 -0.59375q1.578125 0 2.578125 0.796875q1.0 0.796875 1.28125 2.265625l-1.59375 0.234375q-0.234375 -0.96875 -0.8125 -1.453125q-0.578125 -0.5 -1.390625 -0.5q-1.234375 0 -2.015625 0.890625q-0.78125 0.890625 -0.78125 2.8125q0 1.953125 0.75 2.84375q0.75 0.875 1.953125 0.875q0.96875 0 1.609375 -0.59375q0.65625 -0.59375 0.828125 -1.828125zm9.328125 0l1.609375 0.21875q-0.265625 1.65625 -1.359375 2.609375q-1.078125 0.9375 -2.671875 0.9375q-1.984375 0 -3.1875 -1.296875q-1.203125 -1.296875 -1.203125 -3.71875q0 -1.578125 0.515625 -2.75q0.515625 -1.171875 1.578125 -1.75q1.0625 -0.59375 2.3125 -0.59375q1.578125 0 2.578125 0.796875q1.0 0.796875 1.28125 2.265625l-1.59375 0.234375q-0.234375 -0.96875 -0.8125 -1.453125q-0.578125 -0.5 -1.390625 -0.5q-1.234375 0 -2.015625 0.890625q-0.78125 0.890625 -0.78125 2.8125q0 1.953125 0.75 2.84375q0.75 0.875 1.953125 0.875q0.96875 0 1.609375 -0.59375q0.65625 -0.59375 0.828125 -1.828125zm9.640625 0.4375l1.6875 0.203125q-0.40625 1.484375 -1.484375 2.3125q-1.078125 0.8125 -2.765625 0.8125q-2.125 0 -3.375 -1.296875q-1.234375 -1.3125 -1.234375 -3.671875q0 -2.453125 1.25 -3.796875q1.265625 -1.34375 3.265625 -1.34375q1.9375 0 3.15625 1.328125q1.234375 1.3125 1.234375 3.703125q0 0.15625 0 0.4375l-7.21875 0q0.09375 1.59375 0.90625 2.453125q0.8125 0.84375 2.015625 0.84375q0.90625 0 1.546875 -0.46875q0.640625 -0.484375 1.015625 -1.515625zm-5.390625 -2.65625l5.40625 0q-0.109375 -1.21875 -0.625 -1.828125q-0.78125 -0.953125 -2.03125 -0.953125q-1.125 0 -1.90625 0.765625q-0.765625 0.75 -0.84375 2.015625zm8.485107 2.875l1.625 -0.25q0.125 0.96875 0.75 1.5q0.625 0.515625 1.75 0.515625q1.125 0 1.671875 -0.453125q0.546875 -0.46875 0.546875 -1.09375q0 -0.546875 -0.484375 -0.875q-0.328125 -0.21875 -1.671875 -0.546875q-1.8125 -0.46875 -2.515625 -0.796875q-0.6875 -0.328125 -1.046875 -0.90625q-0.359375 -0.59375 -0.359375 -1.3125q0 -0.640625 0.296875 -1.1875q0.296875 -0.5625 0.8125 -0.921875q0.375 -0.28125 1.03125 -0.46875q0.671875 -0.203125 1.421875 -0.203125q1.140625 0 2.0 0.328125q0.859375 0.328125 1.265625 0.890625q0.421875 0.5625 0.578125 1.5l-1.609375 0.21875q-0.109375 -0.75 -0.640625 -1.171875q-0.515625 -0.421875 -1.46875 -0.421875q-1.140625 0 -1.625 0.375q-0.46875 0.375 -0.46875 0.875q0 0.3125 0.1875 0.578125q0.203125 0.265625 0.640625 0.4375q0.234375 0.09375 1.4375 0.421875q1.75 0.453125 2.4375 0.75q0.6875 0.296875 1.078125 0.859375q0.390625 0.5625 0.390625 1.40625q0 0.828125 -0.484375 1.546875q-0.46875 0.71875 -1.375 1.125q-0.90625 0.390625 -2.046875 0.390625q-1.875 0 -2.875 -0.78125q-0.984375 -0.78125 -1.25 -2.328125zm9.328125 0l1.625 -0.25q0.125 0.96875 0.75 1.5q0.625 0.515625 1.75 0.515625q1.125 0 1.671875 -0.453125q0.546875 -0.46875 0.546875 -1.09375q0 -0.546875 -0.484375 -0.875q-0.328125 -0.21875 -1.671875 -0.546875q-1.8125 -0.46875 -2.515625 -0.796875q-0.6875 -0.328125 -1.046875 -0.90625q-0.359375 -0.59375 -0.359375 -1.3125q0 -0.640625 0.296875 -1.1875q0.296875 -0.5625 0.8125 -0.921875q0.375 -0.28125 1.03125 -0.46875q0.671875 -0.203125 1.421875 -0.203125q1.140625 0 2.0 0.328125q0.859375 0.328125 1.265625 0.890625q0.421875 0.5625 0.578125 1.5l-1.609375 0.21875q-0.109375 -0.75 -0.640625 -1.171875q-0.515625 -0.421875 -1.46875 -0.421875q-1.140625 0 -1.625 0.375q-0.46875 0.375 -0.46875 0.875q0 0.3125 0.1875 0.578125q0.203125 0.265625 0.640625 0.4375q0.234375 0.09375 1.4375 0.421875q1.75 0.453125 2.4375 0.75q0.6875 0.296875 1.078125 0.859375q0.390625 0.5625 0.390625 1.40625q0 0.828125 -0.484375 1.546875q-0.46875 0.71875 -1.375 1.125q-0.90625 0.390625 -2.046875 0.390625q-1.875 0 -2.875 -0.78125q-0.984375 -0.78125 -1.25 -2.328125zm10.375 2.890625l0 -8.40625l-1.453125 0l0 -1.265625l1.453125 0l0 -1.03125q0 -0.96875 0.171875 -1.453125q0.234375 -0.640625 0.828125 -1.03125q0.59375 -0.390625 1.671875 -0.390625q0.6875 0 1.53125 0.15625l-0.25 1.4375q-0.5 -0.09375 -0.953125 -0.09375q-0.75 0 -1.0625 0.328125q-0.3125 0.3125 -0.3125 1.1875l0 0.890625l1.890625 0l0 1.265625l-1.890625 0l0 8.40625l-1.625 0zm11.120789 0l0 -1.421875q-1.125 1.640625 -3.0625 1.640625q-0.859375 0 -1.609375 -0.328125q-0.734375 -0.328125 -1.09375 -0.828125q-0.359375 -0.5 -0.5 -1.21875q-0.109375 -0.46875 -0.109375 -1.53125l0 -5.984375l1.640625 0l0 5.359375q0 1.28125 0.109375 1.734375q0.15625 0.640625 0.65625 1.015625q0.5 0.375 1.234375 0.375q0.734375 0 1.375 -0.375q0.65625 -0.390625 0.921875 -1.03125q0.265625 -0.65625 0.265625 -1.890625l0 -5.1875l1.640625 0l0 9.671875l-1.46875 0zm4.0007324 0l0 -13.359375l1.640625 0l0 13.359375l-1.640625 0zm11.15625 0l-2.96875 -9.671875l1.703125 0l1.53125 5.578125l0.578125 2.078125q0.046875 -0.15625 0.5 -2.0l1.546875 -5.65625l1.6875 0l1.4375 5.609375l0.484375 1.84375l0.5625 -1.859375l1.65625 -5.59375l1.59375 0l-3.03125 9.671875l-1.703125 0l-1.53125 -5.796875l-0.375 -1.640625l-1.953125 7.4375l-1.71875 0zm11.691681 -11.46875l0 -1.890625l1.640625 0l0 1.890625l-1.640625 0zm0 11.46875l0 -9.671875l1.640625 0l0 9.671875l-1.640625 0zm7.7229614 -1.46875l0.234375 1.453125q-0.6875 0.140625 -1.234375 0.140625q-0.890625 0 -1.390625 -0.28125q-0.484375 -0.28125 -0.6875 -0.734375q-0.203125 -0.46875 -0.203125 -1.9375l0 -5.578125l-1.203125 0l0 -1.265625l1.203125 0l0 -2.390625l1.625 -0.984375l0 3.375l1.65625 0l0 1.265625l-1.65625 0l0 5.671875q0 0.6875 0.078125 0.890625q0.09375 0.203125 0.28125 0.328125q0.203125 0.109375 0.578125 0.109375q0.265625 0 0.71875 -0.0625zm1.6051636 1.46875l0 -13.359375l1.640625 0l0 4.796875q1.140625 -1.328125 2.890625 -1.328125q1.078125 0 1.859375 0.421875q0.796875 0.421875 1.140625 1.171875q0.34375 0.75 0.34375 2.171875l0 6.125l-1.640625 0l0 -6.125q0 -1.234375 -0.53125 -1.796875q-0.53125 -0.5625 -1.515625 -0.5625q-0.71875 0 -1.359375 0.390625q-0.640625 0.375 -0.921875 1.015625q-0.265625 0.640625 -0.265625 1.78125l0 5.296875l-1.640625 0z" fill-rule="nonzero"/><path fill="#000000" d="m368.1826 450.036l0.234375 1.453125q-0.6875 0.140625 -1.234375 0.140625q-0.890625 0 -1.390625 -0.28125q-0.484375 -0.28125 -0.6875 -0.734375q-0.203125 -0.46875 -0.203125 -1.9375l0 -5.578125l-1.203125 0l0 -1.265625l1.203125 0l0 -2.390625l1.625 -0.984375l0 3.375l1.65625 0l0 1.265625l-1.65625 0l0 5.671875q0 0.6875 0.078125 0.890625q0.09375 0.203125 0.28125 0.328125q0.203125 0.109375 0.578125 0.109375q0.265625 0 0.71875 -0.0625zm1.6051636 1.46875l0 -13.359375l1.640625 0l0 4.796875q1.140625 -1.328125 2.890625 -1.328125q1.078125 0 1.859375 0.421875q0.796875 0.421875 1.140625 1.171875q0.34375 0.75 0.34375 2.171875l0 6.125l-1.640625 0l0 -6.125q0 -1.234375 -0.53125 -1.796875q-0.53125 -0.5625 -1.515625 -0.5625q-0.71875 0 -1.359375 0.390625q-0.640625 0.375 -0.921875 1.015625q-0.265625 0.640625 -0.265625 1.78125l0 5.296875l-1.640625 0zm10.360107 0l0 -9.671875l1.46875 0l0 1.46875q0.5625 -1.03125 1.03125 -1.359375q0.484375 -0.328125 1.0625 -0.328125q0.828125 0 1.6875 0.53125l-0.5625 1.515625q-0.609375 -0.359375 -1.203125 -0.359375q-0.546875 0 -0.96875 0.328125q-0.421875 0.328125 -0.609375 0.890625q-0.28125 0.875 -0.28125 1.921875l0 5.0625l-1.625 0zm12.853302 -3.109375l1.6875 0.203125q-0.40625 1.484375 -1.484375 2.3125q-1.078125 0.8125 -2.765625 0.8125q-2.125 0 -3.375 -1.296875q-1.234375 -1.3125 -1.234375 -3.671875q0 -2.453125 1.25 -3.796875q1.265625 -1.34375 3.265625 -1.34375q1.9375 0 3.15625 1.328125q1.234375 1.3125 1.234375 3.703125q0 0.15625 0 0.4375l-7.21875 0q0.09375 1.59375 0.90625 2.453125q0.8125 0.84375 2.015625 0.84375q0.90625 0 1.546875 -0.46875q0.640625 -0.484375 1.015625 -1.515625zm-5.390625 -2.65625l5.40625 0q-0.109375 -1.21875 -0.625 -1.828125q-0.78125 -0.953125 -2.03125 -0.953125q-1.125 0 -1.90625 0.765625q-0.765625 0.75 -0.84375 2.015625zm8.485077 2.875l1.625 -0.25q0.125 0.96875 0.75 1.5q0.625 0.515625 1.75 0.515625q1.125 0 1.671875 -0.453125q0.546875 -0.46875 0.546875 -1.09375q0 -0.546875 -0.484375 -0.875q-0.328125 -0.21875 -1.671875 -0.546875q-1.8125 -0.46875 -2.515625 -0.796875q-0.6875 -0.328125 -1.046875 -0.90625q-0.359375 -0.59375 -0.359375 -1.3125q0 -0.640625 0.296875 -1.1875q0.296875 -0.5625 0.8125 -0.921875q0.375 -0.28125 1.03125 -0.46875q0.671875 -0.203125 1.421875 -0.203125q1.140625 0 2.0 0.328125q0.859375 0.328125 1.265625 0.890625q0.421875 0.5625 0.578125 1.5l-1.609375 0.21875q-0.109375 -0.75 -0.640625 -1.171875q-0.515625 -0.421875 -1.46875 -0.421875q-1.140625 0 -1.625 0.375q-0.46875 0.375 -0.46875 0.875q0 0.3125 0.1875 0.578125q0.203125 0.265625 0.640625 0.4375q0.234375 0.09375 1.4375 0.421875q1.75 0.453125 2.4375 0.75q0.6875 0.296875 1.078125 0.859375q0.390625 0.5625 0.390625 1.40625q0 0.828125 -0.484375 1.546875q-0.46875 0.71875 -1.375 1.125q-0.90625 0.390625 -2.046875 0.390625q-1.875 0 -2.875 -0.78125q-0.984375 -0.78125 -1.25 -2.328125zm9.984375 2.890625l0 -13.359375l1.640625 0l0 4.796875q1.140625 -1.328125 2.890625 -1.328125q1.078125 0 1.859375 0.421875q0.796875 0.421875 1.140625 1.171875q0.34375 0.75 0.34375 2.171875l0 6.125l-1.640625 0l0 -6.125q0 -1.234375 -0.53125 -1.796875q-0.53125 -0.5625 -1.515625 -0.5625q-0.71875 0 -1.359375 0.390625q-0.640625 0.375 -0.921875 1.015625q-0.265625 0.640625 -0.265625 1.78125l0 5.296875l-1.640625 0zm9.766357 -4.84375q0 -2.6875 1.484375 -3.96875q1.25 -1.078125 3.046875 -1.078125q2.0 0 3.265625 1.3125q1.265625 1.296875 1.265625 3.609375q0 1.859375 -0.5625 2.9375q-0.5625 1.0625 -1.640625 1.65625q-1.0625 0.59375 -2.328125 0.59375q-2.03125 0 -3.28125 -1.296875q-1.25 -1.3125 -1.25 -3.765625zm1.6875 0q0 1.859375 0.796875 2.796875q0.8125 0.921875 2.046875 0.921875q1.21875 0 2.03125 -0.921875q0.8125 -0.9375 0.8125 -2.84375q0 -1.796875 -0.8125 -2.71875q-0.8125 -0.921875 -2.03125 -0.921875q-1.234375 0 -2.046875 0.921875q-0.796875 0.90625 -0.796875 2.765625zm9.250702 4.84375l0 -13.359375l1.640625 0l0 13.359375l-1.640625 0zm10.457336 0l0 -1.21875q-0.90625 1.4375 -2.703125 1.4375q-1.15625 0 -2.125 -0.640625q-0.96875 -0.640625 -1.5 -1.78125q-0.53125 -1.140625 -0.53125 -2.625q0 -1.453125 0.484375 -2.625q0.484375 -1.1875 1.4375 -1.8125q0.96875 -0.625 2.171875 -0.625q0.875 0 1.546875 0.375q0.6875 0.359375 1.109375 0.953125l0 -4.796875l1.640625 0l0 13.359375l-1.53125 0zm-5.171875 -4.828125q0 1.859375 0.78125 2.78125q0.78125 0.921875 1.84375 0.921875q1.078125 0 1.828125 -0.875q0.75 -0.890625 0.75 -2.6875q0 -1.984375 -0.765625 -2.90625q-0.765625 -0.9375 -1.890625 -0.9375q-1.078125 0 -1.8125 0.890625q-0.734375 0.890625 -0.734375 2.8125zm17.152771 4.828125l-3.6875 -9.671875l1.734375 0l2.078125 5.796875q0.328125 0.9375 0.625 1.9375q0.203125 -0.765625 0.609375 -1.828125l2.140625 -5.90625l1.6875 0l-3.65625 9.671875l-1.53125 0zm12.953125 -1.1875q-0.921875 0.765625 -1.765625 1.09375q-0.828125 0.3125 -1.796875 0.3125q-1.59375 0 -2.453125 -0.78125q-0.859375 -0.78125 -0.859375 -1.984375q0 -0.71875 0.328125 -1.296875q0.328125 -0.59375 0.84375 -0.9375q0.53125 -0.359375 1.1875 -0.546875q0.46875 -0.125 1.453125 -0.25q1.984375 -0.234375 2.921875 -0.5625q0.015625 -0.34375 0.015625 -0.421875q0 -1.0 -0.46875 -1.421875q-0.625 -0.546875 -1.875 -0.546875q-1.15625 0 -1.703125 0.40625q-0.546875 0.40625 -0.8125 1.421875l-1.609375 -0.21875q0.21875 -1.015625 0.71875 -1.640625q0.5 -0.640625 1.453125 -0.984375q0.953125 -0.34375 2.1875 -0.34375q1.25 0 2.015625 0.296875q0.78125 0.28125 1.140625 0.734375q0.375 0.4375 0.515625 1.109375q0.078125 0.421875 0.078125 1.515625l0 2.1875q0 2.28125 0.109375 2.890625q0.109375 0.59375 0.40625 1.15625l-1.703125 0q-0.265625 -0.515625 -0.328125 -1.1875zm-0.140625 -3.671875q-0.890625 0.375 -2.671875 0.625q-1.015625 0.140625 -1.4375 0.328125q-0.421875 0.1875 -0.65625 0.53125q-0.21875 0.34375 -0.21875 0.78125q0 0.65625 0.5 1.09375q0.5 0.4375 1.453125 0.4375q0.9375 0 1.671875 -0.40625q0.75 -0.421875 1.09375 -1.140625q0.265625 -0.5625 0.265625 -1.640625l0 -0.609375zm4.156952 4.859375l0 -13.359375l1.640625 0l0 13.359375l-1.640625 0zm10.519836 0l0 -1.421875q-1.125 1.640625 -3.0625 1.640625q-0.859375 0 -1.609375 -0.328125q-0.734375 -0.328125 -1.09375 -0.828125q-0.359375 -0.5 -0.5 -1.21875q-0.109375 -0.46875 -0.109375 -1.53125l0 -5.984375l1.640625 0l0 5.359375q0 1.28125 0.109375 1.734375q0.15625 0.640625 0.65625 1.015625q0.5 0.375 1.234375 0.375q0.734375 0 1.375 -0.375q0.65625 -0.390625 0.921875 -1.03125q0.265625 -0.65625 0.265625 -1.890625l0 -5.1875l1.640625 0l0 9.671875l-1.46875 0zm10.672577 -3.109375l1.6875 0.203125q-0.40625 1.484375 -1.484375 2.3125q-1.078125 0.8125 -2.765625 0.8125q-2.125 0 -3.375 -1.296875q-1.234375 -1.3125 -1.234375 -3.671875q0 -2.453125 1.25 -3.796875q1.265625 -1.34375 3.265625 -1.34375q1.9375 0 3.15625 1.328125q1.234375 1.3125 1.234375 3.703125q0 0.15625 0 0.4375l-7.21875 0q0.09375 1.59375 0.90625 2.453125q0.8125 0.84375 2.015625 0.84375q0.90625 0 1.546875 -0.46875q0.640625 -0.484375 1.015625 -1.515625zm-5.390625 -2.65625l5.40625 0q-0.109375 -1.21875 -0.625 -1.828125q-0.78125 -0.953125 -2.03125 -0.953125q-1.125 0 -1.90625 0.765625q-0.765625 0.75 -0.84375 2.015625z" fill-rule="nonzero"/></g></svg>